<?xml version="1.0" standalone="no"?>
<!DOCTYPE svg PUBLIC "-//W3C//DTD SVG 20010904//EN"
 "http://www.w3.org/TR/2001/REC-SVG-20010904/DTD/svg10.dtd">
<svg version="1.0" xmlns="http://www.w3.org/2000/svg"
 width="1024.000000pt" height="1024.000000pt" viewBox="0 0 1024.000000 1024.000000"
 preserveAspectRatio="xMidYMid meet">
<metadata>
Created by potrace 1.11, written by Peter Selinger 2001-2013
</metadata>
<g transform="translate(0.000000,1024.000000) scale(0.100000,-0.100000)"
fill="#000000" stroke="none">
<path d="M760 5660 l0 -1190 185 0 185 0 0 380 c0 214 4 380 9 380 5 0 75 -87
157 -192 81 -106 166 -216 189 -244 51 -65 83 -107 131 -169 59 -78 98 -128
111 -142 9 -10 67 -13 258 -11 245 3 246 3 228 23 -27 30 -368 442 -443 535
-19 24 -39 48 -45 54 -5 6 -36 43 -68 81 -33 39 -67 80 -78 93 -10 12 -19 27
-19 33 0 9 191 223 236 264 9 8 214 227 356 380 l37 40 -237 3 -237 3 -49 -53
c-27 -29 -94 -102 -150 -162 -56 -60 -105 -114 -111 -121 -140 -156 -264 -283
-269 -277 -3 3 -6 338 -6 744 l0 738 -185 0 -185 0 0 -1190z"/>
<path d="M5600 5660 l0 -1190 185 0 185 0 1 113 c0 107 1 111 16 87 9 -14 42
-50 73 -80 181 -177 535 -214 795 -83 141 71 242 168 313 302 51 96 67 145 88
276 37 229 -19 468 -153 645 -31 41 -82 96 -114 123 -70 58 -191 119 -279 142
-89 24 -292 24 -380 0 -112 -29 -238 -101 -298 -169 -17 -20 -34 -36 -37 -36
-3 0 -5 239 -5 530 l0 530 -195 0 -195 0 0 -1190z m926 9 c86 -16 161 -56 229
-124 73 -73 111 -147 126 -250 43 -286 -161 -525 -446 -525 -195 0 -360 113
-426 291 -60 164 -20 357 101 481 110 112 255 157 416 127z"/>
<path d="M7738 6716 c-76 -33 -128 -117 -128 -206 0 -151 135 -255 283 -219
65 15 139 83 156 144 31 114 -8 219 -100 270 -38 20 -60 25 -115 24 -38 0 -81
-6 -96 -13z"/>
<path d="M8560 6210 l0 -220 -155 0 -155 0 0 -160 0 -160 154 0 154 0 4 -442
c4 -388 6 -451 22 -510 37 -139 110 -219 234 -259 127 -41 383 -36 505 10 l27
11 0 159 0 159 -51 -19 c-27 -11 -83 -22 -122 -24 -100 -7 -161 15 -202 73
l-30 44 -3 399 -3 399 206 0 205 0 0 160 0 160 -205 0 -205 0 0 220 0 220
-190 0 -190 0 0 -220z"/>
<path d="M3065 6011 c-144 -19 -335 -92 -410 -156 -224 -192 -319 -407 -302
-686 8 -124 28 -204 78 -304 86 -171 206 -284 384 -362 225 -98 500 -98 736 2
101 42 160 83 244 169 85 87 134 167 176 288 28 80 33 110 37 217 7 195 -25
325 -115 470 -139 223 -372 350 -668 365 -55 2 -127 1 -160 -3z m241 -342
c116 -21 237 -101 298 -197 88 -139 86 -372 -4 -504 -86 -124 -223 -197 -371
-198 -137 0 -241 40 -330 129 -70 70 -104 138 -126 250 -14 71 -14 85 0 156
22 105 60 179 124 242 107 105 258 150 409 122z"/>
<path d="M5115 6010 c-139 -17 -274 -105 -346 -225 l-24 -40 -3 118 -3 117
-192 -2 -192 -3 -3 -752 -2 -753 195 0 195 0 0 414 c0 234 4 436 10 466 14 74
47 136 103 192 103 103 248 140 414 104 34 -7 65 -11 68 -8 3 3 5 83 5 178 0
155 -2 174 -17 182 -27 14 -141 21 -208 12z"/>
<path d="M7650 5225 l0 -755 185 0 185 0 0 755 0 755 -185 0 -185 0 0 -755z"/>
</g>
</svg>
