<svg id="Capa_1" enable-background="new 0 0 512 512" height="512" viewBox="0 0 512 512" width="512" xmlns="http://www.w3.org/2000/svg"><g><path d="m467 512h-422c-24.813 0-45-20.187-45-45v-290c0-8.284 6.716-15 15-15h482c8.284 0 15 6.716 15 15v290c0 24.813-20.187 45-45 45z" fill="#fffbf4"/><path d="m497 162h-241v350h211c24.813 0 45-20.187 45-45v-290c0-8.284-6.716-15-15-15z" fill="#f9f4c8"/><path d="m467 42h-422c-24.813 0-45 20.187-45 45v90h512v-90c0-24.813-20.187-45-45-45z" fill="#ff5c5c"/><path d="m467 42h-211v135h256v-90c0-24.813-20.187-45-45-45z" fill="#ff3838"/><g><g fill="#93c6ec"><path d="m138.5 222h-70c-8.284 0-15 6.716-15 15v70c0 8.284 6.716 15 15 15h70c8.284 0 15-6.716 15-15v-70c0-8.284-6.716-15-15-15zm-15 70h-40v-40h40z"/><path d="m291 222h-70c-8.284 0-15 6.716-15 15v70c0 8.284 6.716 15 15 15h70c8.284 0 15-6.716 15-15v-70c0-8.284-6.716-15-15-15zm-15 70h-40v-40h40z"/><path d="m138.5 352h-70c-8.284 0-15 6.716-15 15v70c0 8.284 6.716 15 15 15h70c8.284 0 15-6.716 15-15v-70c0-8.284-6.716-15-15-15zm-15 70h-40v-40h40z"/><path d="m291 352h-70c-8.284 0-15 6.716-15 15v70c0 8.284 6.716 15 15 15h70c8.284 0 15-6.716 15-15v-70c0-8.284-6.716-15-15-15zm-15 70h-40v-40h40z"/></g><path d="m443.5 352h-70c-8.284 0-15 6.716-15 15v70c0 8.284 6.716 15 15 15h70c8.284 0 15-6.716 15-15v-70c0-8.284-6.716-15-15-15zm-15 70h-40v-40h40z" fill="#6ba7ff"/><path d="m429.713 272 24.394-24.394c5.858-5.858 5.858-15.355 0-21.213-5.857-5.858-15.355-5.858-21.213 0l-24.394 24.394-24.394-24.394c-5.857-5.858-15.355-5.858-21.213 0s-5.858 15.355 0 21.213l24.394 24.394-24.394 24.394c-5.858 5.858-5.858 15.355 0 21.213 2.929 2.929 6.768 4.394 10.606 4.394s7.678-1.464 10.606-4.394l24.394-24.394 24.394 24.394c2.929 2.929 6.768 4.394 10.606 4.394s7.678-1.464 10.606-4.394c5.858-5.858 5.858-15.355 0-21.213z" fill="#3c4655"/></g><g fill="#556e82"><path d="m80.333 102v-87c0-8.284-6.716-15-15-15s-15 6.716-15 15v87c-8.284 0-15 6.716-15 15s6.716 15 15 15h30c8.284 0 15-6.716 15-15s-6.715-15-15-15z"/><path d="m175.667 102v-87c0-8.284-6.716-15-15-15s-15 6.716-15 15v87c-8.284 0-15 6.716-15 15s6.716 15 15 15h30c8.284 0 15-6.716 15-15s-6.716-15-15-15z"/><path d="m271 102v-87c0-8.284-6.716-15-15-15s-15 6.716-15 15v87c-8.284 0-15 6.716-15 15s6.716 15 15 15h30c8.284 0 15-6.716 15-15s-6.716-15-15-15z"/></g><path d="m366.333 102v-87c0-8.284-6.716-15-15-15s-15 6.716-15 15v87c-8.284 0-15 6.716-15 15s6.716 15 15 15h30c8.284 0 15-6.716 15-15s-6.715-15-15-15z" fill="#3c4655"/><path d="m461.667 102v-87c0-8.284-6.716-15-15-15s-15 6.716-15 15v87c-8.284 0-15 6.716-15 15s6.716 15 15 15h30c8.284 0 15-6.716 15-15s-6.716-15-15-15z" fill="#3c4655"/><g><g fill="#6ba7ff"><path d="m291 222h-35v30h20v40h-20v30h35c8.284 0 15-6.716 15-15v-70c0-8.284-6.716-15-15-15z"/><path d="m291 352h-35v30h20v40h-20v30h35c8.284 0 15-6.716 15-15v-70c0-8.284-6.716-15-15-15z"/></g><path d="m271 132c8.284 0 15-6.716 15-15s-6.716-15-15-15v-87c0-8.284-6.716-15-15-15v132z" fill="#3c4655"/></g></g></svg>