<?xml version="1.0" encoding="UTF-8"?>
<svg width="256px" height="256px" viewBox="0 0 256 256" version="1.1" xmlns="http://www.w3.org/2000/svg" xmlns:xlink="http://www.w3.org/1999/xlink">
    <!-- Generator: Sketch 64 (93537) - https://sketch.com -->
    <title>Artboard</title>
    <desc>Created with Sketch.</desc>
    <g id="Artboard" stroke="none" stroke-width="1" fill="none" fill-rule="evenodd">
        <path d="M24.9152542,159 L24.9152542,138.583333 L25.0805085,138.583333 L40.8622881,159 L54,159 L35.904661,137.166667 L52.9258475,119 L40.2012712,119 L24.9152542,135.583333 L24.9152542,96 L15,96 L15,159 L24.9152542,159 Z M79,160 C82.0344828,160 84.9003831,159.5 87.5977011,158.5 C90.2950192,157.5 92.6270754,156.083333 94.5938697,154.25 C96.5606641,152.416667 98.1200511,150.208333 99.2720307,147.625 C100.42401,145.041667 101,142.166667 101,139 C101,135.833333 100.42401,132.958333 99.2720307,130.375 C98.1200511,127.791667 96.5606641,125.583333 94.5938697,123.75 C92.6270754,121.916667 90.2950192,120.5 87.5977011,119.5 C84.9003831,118.5 82.0344828,118 79,118 C75.9655172,118 73.0996169,118.5 70.4022989,119.5 C67.7049808,120.5 65.3729246,121.916667 63.4061303,123.75 C61.4393359,125.583333 59.8799489,127.791667 58.7279693,130.375 C57.5759898,132.958333 57,135.833333 57,139 C57,142.166667 57.5759898,145.041667 58.7279693,147.625 C59.8799489,150.208333 61.4393359,152.416667 63.4061303,154.25 C65.3729246,156.083333 67.7049808,157.5 70.4022989,158.5 C73.0996169,159.5 75.9655172,160 79,160 Z M80,151 C78.1276596,151 76.4539007,150.666667 74.9787234,150 C73.5035461,149.333333 72.2411348,148.444444 71.1914894,147.333333 C70.141844,146.222222 69.3475177,144.944444 68.8085106,143.5 C68.2695035,142.055556 68,140.555556 68,139 C68,137.444444 68.2695035,135.944444 68.8085106,134.5 C69.3475177,133.055556 70.141844,131.777778 71.1914894,130.666667 C72.2411348,129.555556 73.5035461,128.666667 74.9787234,128 C76.4539007,127.333333 78.1276596,127 80,127 C81.8723404,127 83.5460993,127.333333 85.0212766,128 C86.4964539,128.666667 87.7588652,129.555556 88.8085106,130.666667 C89.858156,131.777778 90.6524823,133.055556 91.1914894,134.5 C91.7304965,135.944444 92,137.444444 92,139 C92,140.555556 91.7304965,142.055556 91.1914894,143.5 C90.6524823,144.944444 89.858156,146.222222 88.8085106,147.333333 C87.7588652,148.444444 86.4964539,149.333333 85.0212766,150 C83.5460993,150.666667 81.8723404,151 80,151 Z M120.162866,159 L120.162866,137.583333 C120.162866,137.027778 120.289902,136.194444 120.543974,135.083333 C120.798046,133.972222 121.306189,132.861111 122.068404,131.75 C122.830619,130.638889 123.931596,129.652778 125.371336,128.791667 C126.811075,127.930556 128.716612,127.5 131.087948,127.5 C131.878393,127.5 132.682953,127.569444 133.501629,127.708333 C134.320304,127.847222 135.153094,128.027778 136,128.25 L136,128.25 L136,118.583333 C135.378936,118.416667 134.771987,118.277778 134.179153,118.166667 C133.586319,118.055556 132.97937,118 132.358306,118 C129.648208,118 127.248643,118.638889 125.159609,119.916667 C123.070575,121.194444 121.461455,123 120.332248,125.333333 L120.332248,125.333333 L120.162866,125.333333 L120.162866,119 L110,119 L110,159 L120.162866,159 Z M166.868726,160 C169.983269,160 172.786358,159.458333 175.277992,158.375 C177.769627,157.291667 179.893179,155.805556 181.648649,153.916667 C183.404118,152.027778 184.734878,149.805556 185.640927,147.25 C186.546976,144.694444 187,141.944444 187,139 C187,136.055556 186.518662,133.305556 185.555985,130.75 C184.593308,128.194444 183.248391,125.972222 181.521236,124.083333 C179.79408,122.194444 177.712999,120.708333 175.277992,119.625 C172.842986,118.541667 170.181467,118 167.293436,118 C165.368082,118 163.669241,118.194444 162.196911,118.583333 C160.724582,118.972222 159.422136,119.472222 158.289575,120.083333 C157.157014,120.694444 156.194337,121.347222 155.401544,122.041667 C154.608752,122.736111 153.957529,123.416667 153.447876,124.083333 L153.447876,124.083333 L153.19305,124.083333 L153.19305,96 L143,96 L143,159 L152.683398,159 L152.683398,153 L152.853282,153 C154.325611,155.444444 156.307593,157.222222 158.799228,158.333333 C161.290862,159.444444 163.980695,160 166.868726,160 Z M165,151 C163.12766,151 161.453901,150.666667 159.978723,150 C158.503546,149.333333 157.241135,148.444444 156.191489,147.333333 C155.141844,146.222222 154.347518,144.944444 153.808511,143.5 C153.269504,142.055556 153,140.555556 153,139 C153,137.444444 153.269504,135.944444 153.808511,134.5 C154.347518,133.055556 155.141844,131.777778 156.191489,130.666667 C157.241135,129.555556 158.503546,128.666667 159.978723,128 C161.453901,127.333333 163.12766,127 165,127 C166.87234,127 168.546099,127.333333 170.021277,128 C171.496454,128.666667 172.758865,129.555556 173.808511,130.666667 C174.858156,131.777778 175.652482,133.055556 176.191489,134.5 C176.730496,135.944444 177,137.444444 177,139 C177,140.555556 176.730496,142.055556 176.191489,143.5 C175.652482,144.944444 174.858156,146.222222 173.808511,147.333333 C172.758865,148.444444 171.496454,149.333333 170.021277,150 C168.546099,150.666667 166.87234,151 165,151 Z M201.922078,111 C203.636364,111 205.077922,110.430556 206.246753,109.291667 C207.415584,108.152778 208,106.722222 208,105 C208,103.277778 207.415584,101.847222 206.246753,100.708333 C205.077922,99.5694444 203.636364,99 201.922078,99 C200.207792,99 198.792208,99.5972222 197.675325,100.791667 C196.558442,101.986111 196,103.388889 196,105 C196,106.611111 196.558442,108.013889 197.675325,109.208333 C198.792208,110.402778 200.207792,111 201.922078,111 Z M207,159 L207,119 L197,119 L197,159 L207,159 Z M234.150997,160 C235.307692,160 236.6434,159.902007 238.15812,159.706022 C239.67284,159.510037 240.953466,159.160063 242,158.656101 L242,158.656101 L242,150.172742 C241.394112,150.620708 240.567901,150.942684 239.521368,151.138669 C238.474834,151.334654 237.510921,151.432647 236.62963,151.432647 C234.426401,151.432647 232.952991,150.844691 232.209402,149.66878 C231.465812,148.492868 231.094017,146.896989 231.094017,144.881141 L231.094017,144.881141 L231.094017,127.242472 L242,127.242472 L242,118.675119 L231.094017,118.675119 L231.094017,107 L221.179487,107 L221.179487,118.675119 L213,118.675119 L213,127.242472 L221.179487,127.242472 L221.179487,145.721078 C221.179487,148.0729 221.3585,150.144744 221.716524,151.936609 C222.074549,153.728473 222.735518,155.22636 223.69943,156.430269 C224.663343,157.634179 225.98528,158.530111 227.665242,159.118067 C229.345204,159.706022 231.507123,160 234.150997,160 Z" id="korbit" fill="#000000" fill-rule="nonzero"></path>
    </g>
</svg>