<svg height="512pt" viewBox="0 0 512 512" width="512pt" xmlns="http://www.w3.org/2000/svg"><path d="m512 256c0 52.484375-15.796875 101.28125-42.894531 141.898438-27.992188 41.960937-68.054688 75.191406-115.230469 94.707031-2.570312 1.078125-5.171875 2.101562-7.785156 3.082031-7.375 2.792969-14.929688 5.238281-22.621094 7.324219-4.011719 1.097656-8.066406 2.101562-12.152344 3-7.324218 1.609375-14.765625 2.917969-22.296875 3.875-6.785156.878906-13.648437 1.496093-20.574219 1.820312-4.128906.1875-8.277343.292969-12.445312.292969-3.09375 0-6.175781-.054688-9.246094-.167969-6.269531-.21875-12.488281-.667969-18.644531-1.347656-.007813 0-.019531 0-.019531 0-4.390625-.46875-8.757813-1.054687-13.082032-1.753906-7.785156-1.257813-15.445312-2.855469-22.976562-4.796875-29.644531-7.628906-57.207031-20.429688-81.679688-37.398438-18.128906-12.546875-34.554687-27.386718-48.859374-44.082031-.273438-.324219-.554688-.648437-.828126-.972656-21.441406-25.277344-38.054687-54.773438-48.429687-87.058594-7.941406-24.714844-12.234375-51.066406-12.234375-78.421875 0-62.371094 22.308594-119.546875 59.390625-163.953125 33.980469-40.722656 80.386719-70.71875 133.382813-84.179687 10.332031-2.632813 20.929687-4.628907 31.722656-5.945313 10.324218-1.273437 20.835937-1.921875 31.503906-1.921875 141.386719 0 256 114.613281 256 256zm0 0" fill="#ff648d"/><path d="m428.753906 346.425781c0 41.460938-33.59375 75.054688-75.046875 75.054688h-293.039062c-21.441407-25.277344-38.054688-54.773438-48.433594-87.058594 20.660156-13.367187 34.316406-36.605469 34.316406-63.03125v-117.800781c0-21.890625 4.585938-42.703125 12.839844-61.542969 7.734375-17.671875 18.703125-33.59375 32.152344-47.050781 27.335937-27.347656 64.886719-44.410156 106.433593-44.9726565.457032-.0117187.929688-.0117187 1.398438-.0117187.261719-.0117188.503906-.0117188.753906-.0117188 8.296875 0 16.4375.660156 24.367188 1.921875 73.246094 11.671875 129.210937 75.140625 129.210937 151.667969v117.800781c0 20.71875 8.390625 39.476563 21.976563 53.058594 13.582031 13.585937 32.359375 21.976562 53.070312 21.976562zm0 0" fill="#2f373b"/><path d="m156.359375 93.414062c0 15.378907 43.769531 5.382813 43.769531 32.265626v295.800781h-139.460937c-21.441407-25.277344-38.054688-54.773438-48.433594-87.058594 20.660156-13.367187 34.316406-36.605469 34.316406-63.03125v-117.800781c0-21.890625 4.585938-42.703125 12.839844-61.542969 7.734375-17.671875 18.703125-33.59375 32.152344-47.050781 27.335937-27.347656 64.886719-44.410156 106.433593-44.9726565-6.582031.1562505-8.796874 4.0117185-5.203124 7.8437505 1.503906 1.601562 4.03125 3.199218 7.679687 4.515624 27.5625 9.949219-56.269531 19.070313-29.90625 33.738282 18.316406 10.1875 45.527344 11.234375 35.476563 21.285156-10.054688 10.050781-49.664063 10.636719-49.664063 26.007812zm0 0" fill="#161c1e"/><path d="m346.152344 462.199219v4.085937c-34.199219 23.804688-74.488282 39.476563-118.0625 44.199219-4.386719-.46875-8.753906-1.054687-13.082032-1.753906-7.78125-1.257813-15.441406-2.855469-22.976562-4.796875-51.59375-13.269532-96.902344-42.234375-130.539062-81.480469 9.132812-23.617187 26.1875-43.300781 47.898437-55.789063 4.839844-2.777343 9.894531-5.214843 15.164063-7.238281 4.480468-1.746093 9.128906-3.1875 13.875-4.328125 5.453124-1.316406 11.066406-2.226562 16.8125-2.683594 2.976562-.242187 5.976562-.355468 9.015624-.355468h71.734376c8.484374 0 16.726562.941406 24.65625 2.746094.398437.105468.796874.1875 1.183593.285156 4.742188 1.136718 9.390625 2.589844 13.875 4.335937 5.265625 2.027344 10.324219 4.460938 15.160157 7.238281 33.039062 19.019532 55.285156 54.691407 55.285156 95.535157zm0 0" fill="#2dc188"/><path d="m346.152344 462.199219v4.085937c-34.199219 23.804688-74.480469 39.464844-118.039063 44.199219-.011719 0-.023437 0-.023437 0-4.386719-.46875-8.753906-1.054687-13.082032-1.753906-7.785156-1.257813-15.441406-2.855469-22.976562-4.796875-29.644531-7.628906-57.207031-20.429688-81.679688-37.398438v-4.335937c0-60.832031 49.328126-110.140625 110.171876-110.140625h15.464843c60.855469 0 110.164063 49.308594 110.164063 110.140625zm0 0" fill="#55d8a9"/><path d="m275.707031 359.421875c-.664062 32.6875-21.882812 60.949219-53.242187 70.640625-7.199219 2.238281-14.738282 3.375-22.347656 3.375-41.160157 0-74.730469-33.0625-75.566407-74.015625 4.488281-1.746094 9.132813-3.183594 13.875-4.320313 5.457031-1.320312 11.070313-2.226562 16.820313-2.6875 2.972656-.242187 5.976562-.363281 9.011718-.363281h71.730469c8.484375 0 16.734375.945313 24.65625 2.761719.402344.09375.800781.179688 1.1875.277344 4.742188 1.136718 9.386719 2.589844 13.875 4.332031zm0 0" fill="#f6ba97"/><path d="m239.425781 309.621094v48.230468c0 17.65625-11.644531 32.582032-27.679687 37.539063-3.671875 1.136719-7.582032 1.753906-11.628906 1.753906-21.703126 0-39.292969-17.589843-39.292969-39.292969v-48.230468zm0 0" fill="#eaa27f"/><path d="m239.425781 354.796875v3.050781c0 17.660156-11.644531 32.585938-27.679687 37.539063-14.46875-4.445313-25.347656-17.027344-27.359375-32.421875 2.628906.164062 5.265625.242187 7.917969.242187 7.4375 0 14.722656-.589843 21.824218-1.753906 8.75-1.40625 17.203125-3.65625 25.296875-6.65625zm0 0" fill="#f6ba97"/><path d="m319.113281 227.054688c1.546875 56.832031-37.867187 107.261718-93.75 117.722656-1.132812.214844-2.273437.414062-3.417969.597656-.21875.035156-.449218.070312-.667968.105469-6.882813 1.101562-13.949219 1.648437-21.160156 1.648437-8.078126 0-15.992188-.707031-23.683594-2.058594-57.335938-10.074218-97.527344-61.867187-95.222656-120.03125 1.253906-31.523437 11.582031-56.390624 35.042968-54.402343 47.582032 4.027343 83.875-27.425781 83.875-44.957031 0 17.53125 36.296875 48.984374 83.878906 44.957031 23.960938-2.027344 34.21875 23.945312 35.105469 56.417969zm0 0" fill="#eaa27f"/><path d="m319.113281 227.0625c1.546875 56.828125-37.867187 107.246094-93.742187 117.714844-1.136719.214844-2.28125.414062-3.425782.597656-.21875.035156-.449218.070312-.667968.105469-65.039063-10.160157-114.789063-66.441407-114.789063-134.328125v-39.644532c2.964844-.859374 6.21875-1.175781 9.765625-.871093 47.582032 4.027343 83.875-27.429688 83.875-44.960938 0 17.53125 36.296875 48.988281 83.878906 44.960938 23.964844-2.027344 34.222657 23.953125 35.105469 56.425781zm0 0" fill="#f6ba97"/><g fill="#eaa27f"><path d="m292.675781 246.855469c0 9.355469-7.582031 16.9375-16.9375 16.9375s-16.9375-7.582031-16.9375-16.9375c0-9.351563 7.582031-16.9375 16.9375-16.9375s16.9375 7.585937 16.9375 16.9375zm0 0"/><path d="m141.445312 246.855469c0 9.355469-7.582031 16.9375-16.9375 16.9375-9.355468 0-16.9375-7.582031-16.9375-16.9375 0-9.351563 7.582032-16.9375 16.9375-16.9375 9.355469 0 16.9375 7.585937 16.9375 16.9375zm0 0"/><path d="m281.246094 203.71875c0-16.945312-13.738282-30.679688-30.679688-30.679688-16.945312 0-30.683594 13.734376-30.683594 30.679688"/><path d="m180.375 203.71875c0-16.945312-13.734375-30.679688-30.679688-30.679688-16.945312 0-30.679687 13.734376-30.679687 30.679688"/><path d="m215.554688 248.125h-30.851563c-3.675781 0-6.652344-2.980469-6.652344-6.65625s2.976563-6.652344 6.652344-6.652344h30.851563c3.675781 0 6.652343 2.976563 6.652343 6.652344s-2.976562 6.65625-6.652343 6.65625zm0 0"/></g><path d="m200.128906 290.222656c-11.386718 0-22.773437-2.851562-33.152344-8.558594-2.925781-1.609374-3.996093-5.289062-2.386718-8.214843 1.609375-2.929688 5.289062-3.996094 8.214844-2.386719 17.109374 9.40625 37.539062 9.40625 54.648437 0 2.925781-1.609375 6.605469-.542969 8.214844 2.386719 1.609375 2.925781.539062 6.605469-2.386719 8.214843-10.378906 5.707032-21.765625 8.558594-33.152344 8.558594zm0 0" fill="#e88880"/><path d="m170.964844 209.285156c0 11.746094-9.523438 21.269532-21.269532 21.269532-11.746093 0-21.269531-9.523438-21.269531-21.269532s9.523438-21.269531 21.269531-21.269531c11.746094 0 21.269532 9.523437 21.269532 21.269531zm0 0" fill="#067587"/><path d="m170.964844 209.28125c0 10.105469-7.054688 18.570312-16.5 20.730469-9.457032-2.160157-16.507813-10.625-16.507813-20.730469 0-10.101562 7.050781-18.566406 16.507813-20.71875 9.445312 2.152344 16.5 10.617188 16.5 20.71875zm0 0" fill="#1285a0"/><path d="m166.628906 205.53125c0 5.035156-4.082031 9.113281-9.117187 9.113281-5.03125 0-9.113281-4.078125-9.113281-9.113281s4.082031-9.113281 9.113281-9.113281c5.035156 0 9.117187 4.078125 9.117187 9.113281zm0 0" fill="#fff"/><path d="m271.832031 209.28125c0 10.105469-7.054687 18.570312-16.5 20.730469-1.527343.355469-3.125.546875-4.765625.546875-11.742187 0-21.273437-9.53125-21.273437-21.277344 0-11.742188 9.527343-21.261719 21.273437-21.261719 1.640625 0 3.238282.1875 4.765625.542969 9.445313 2.152344 16.5 10.617188 16.5 20.71875zm0 0" fill="#067587"/><path d="m271.832031 209.28125c0 10.105469-7.054687 18.570312-16.5 20.730469-9.457031-2.160157-16.507812-10.625-16.507812-20.730469 0-10.101562 7.050781-18.566406 16.507812-20.71875 9.445313 2.152344 16.5 10.617188 16.5 20.71875zm0 0" fill="#1285a0"/><path d="m267.496094 205.53125c0 5.035156-4.078125 9.113281-9.113282 9.113281-5.035156 0-9.113281-4.078125-9.113281-9.113281s4.078125-9.113281 9.113281-9.113281c5.035157 0 9.113282 4.078125 9.113282 9.113281zm0 0" fill="#fff"/><path d="m469.105469 397.898438c-45.890625 68.785156-124.207031 114.101562-213.105469 114.101562-13.949219 0-27.648438-1.117188-40.992188-3.269531-7.785156-1.253907-15.441406-2.851563-22.976562-4.796875-16.582031-36.351563-10.949219-80.507813 17.230469-111.867188 27.890625-31.011718 57.332031-60.457031 88.347656-88.34375 40.667969-36.550781 102.871094-35.164062 141.644531 3.382813l1.359375 1.359375c5.035157 5.078125 9.457031 10.542968 13.21875 16.320312 14.28125 21.878906 19.414063 48.078125 15.273438 73.113282zm0 0" fill="#1285a0"/><path d="m469.105469 397.898438c-9.652344 14.46875-20.75 27.90625-33.078125 40.089843-2.351563 2.34375-4.746094 4.621094-7.179688 6.84375-.011718 0-.011718 0-.019531.011719-45.539063 41.710938-106.214844 67.15625-172.828125 67.15625-13.949219 0-27.648438-1.121094-40.992188-3.269531-3.039062-18.609375-.949218-37.933594 6.28125-55.683594l.011719-.011719c3.476563-8.554687 8.160157-16.75 14.050781-24.324218 1.527344-1.953126 3.125-3.875 4.808594-5.746094 7.21875-8.023438 14.535156-15.945313 21.953125-23.761719 5.242188-5.515625 10.542969-10.992187 15.890625-16.402344 16.355469-16.554687 33.175782-32.613281 50.5-48.183593 35.347656-31.773438 86.957032-34.878907 125.324219-9.832032 14.285156 21.878906 19.417969 48.078125 15.277344 73.113282zm0 0" fill="#33adc1"/><path d="m434.363281 313.355469c-25.445312-25.449219-66.707031-25.449219-92.152343 0l-30.894532 30.894531c-25.449218 25.445312-25.449218 66.703125 0 92.152344 25.445313 25.445312 66.703125 25.445312 92.152344 0l30.894531-30.894532c25.449219-25.449218 25.449219-66.707031 0-92.152343zm0 0" fill="#1285a0"/><path d="m331.796875 340.171875c-6.390625 6.390625-16.363281 7.023437-23.460937 1.890625-.773438-.558594-1.519532-1.1875-2.21875-1.890625-7.09375-7.09375-7.09375-18.585937 0-25.679687 7.089843-7.09375 18.585937-7.09375 25.679687 0 .699219.699218 1.332031 1.445312 1.890625 2.222656 5.132812 7.09375 4.5 17.0625-1.890625 23.457031zm0 0" fill="#f6ba97"/><path d="m331.796875 340.171875c-6.390625 6.390625-16.363281 7.023437-23.460937 1.890625 2.929687-5.148438 6.585937-9.992188 10.972656-14.378906 4.386718-4.386719 9.230468-8.042969 14.378906-10.96875 5.132812 7.09375 4.5 17.0625-1.890625 23.457031zm0 0" fill="#eaa27f"/><path d="m323.542969 322.742188c-2.535157-2.535157-6.644531-2.535157-9.179688 0-2.535156 2.535156-2.535156 6.644531 0 9.179687 2.535157 2.53125 6.644531 2.53125 9.179688 0 2.53125-2.535156 2.53125-6.644531 0-9.179687zm0 0" fill="#eaa27f"/><path d="m436.023438 437.988281c-2.347657 2.34375-4.742188 4.621094-7.175782 6.84375-.011718 0-.011718 0-.023437.011719-6.855469 3.59375-15.515625 2.519531-21.285157-3.238281-.699218-.710938-1.324218-1.453125-1.890624-2.226563-5.128907-7.09375-4.492188-17.0625 1.890624-23.457031 6.394532-6.394531 16.363282-7.023437 23.460938-1.890625.78125.550781 1.523438 1.191406 2.226562 1.890625 5.988282 5.988281 6.914063 15.109375 2.796876 22.066406zm0 0" fill="#f6ba97"/><path d="m407.546875 415.921875c-6.394531 6.390625-7.023437 16.359375-1.894531 23.457031 5.152344-2.925781 9.992187-6.585937 14.378906-10.972656s8.046875-9.230469 10.972656-14.378906c-7.097656-5.128906-17.066406-4.5-23.457031 1.894531zm0 0" fill="#eaa27f"/><path d="m428.308594 411.296875-17.496094 17.496094c-22.863281 22.859375-58.53125 25.125-83.917969 6.777343-.085937-.0625-.175781-.128906-.261719-.1875-2.695312-1.957031-5.269531-4.160156-7.703124-6.59375-25.375-25.375-25.375-66.511718 0-91.882812l17.492187-17.492188c5.34375-5.34375 11.386719-9.566406 17.84375-12.652343 24.160156-11.597657 54.015625-7.378907 74.042969 12.648437l.003906.003906c2.429688 2.429688 4.632812 5.007813 6.597656 7.707032 18.539063 25.40625 16.335938 61.234375-6.601562 84.175781zm0 0" fill="#eaa27f"/><path d="m424.96875 424.171875c-2.535156-2.535156-6.644531-2.535156-9.175781 0-2.535157 2.535156-2.535157 6.644531 0 9.179687 2.53125 2.53125 6.640625 2.53125 9.175781 0 2.535156-2.535156 2.535156-6.644531 0-9.179687zm0 0" fill="#eaa27f"/><path d="m428.308594 411.296875-17.496094 17.492187c-22.863281 22.863282-58.53125 25.128907-83.917969 6.777344-.085937-.058594-.175781-.125-.261719-.1875-18.539062-25.40625-16.332031-61.230468 6.601563-84.164062l17.496094-17.496094c22.9375-22.941406 58.765625-25.144531 84.179687-6.597656 18.539063 25.40625 16.335938 61.234375-6.601562 84.175781zm0 0" fill="#f6ba97"/><path d="m391.539062 409.613281c-3.304687-3.304687-8.664062-3.304687-11.972656 0-3.304687 3.308594-3.304687 8.667969 0 11.972657 3.308594 3.304687 8.667969 3.304687 11.972656 0 3.304688-3.304688 3.304688-8.664063 0-11.972657zm0 0" fill="#eaa27f"/><path d="m338.097656 356.175781c-3.304687-3.308593-8.664062-3.308593-11.96875 0-3.308594 3.304688-3.308594 8.664063 0 11.96875 3.304688 3.304688 8.664063 3.304688 11.96875 0 3.304688-3.304687 3.304688-8.664062 0-11.96875zm0 0" fill="#eaa27f"/><path d="m402.746094 402.300781c5.988281-5.988281 5.988281-15.695312 0-21.683593-5.984375-5.988282-15.695313-5.988282-21.683594 0" fill="#eaa27f"/><path d="m367.101562 366.65625c5.988282-5.984375 5.988282-15.695312 0-21.683594-5.984374-5.984375-15.695312-5.984375-21.683593 0" fill="#eaa27f"/><path d="m363.84375 394.78125-10.902344-10.902344c-1.300781-1.300781-1.300781-3.40625 0-4.703125 1.296875-1.296875 3.402344-1.296875 4.703125 0l10.902344 10.902344c1.296875 1.296875 1.296875 3.402344 0 4.703125-1.300781 1.296875-3.40625 1.296875-4.703125 0zm0 0" fill="#eaa27f"/><path d="m361.804688 350.265625c-4.148438-4.148437-10.878907-4.148437-15.03125 0-4.148438 4.152344-4.148438 10.882813 0 15.03125 4.152343 4.152344 10.882812 4.152344 15.03125 0 4.152343-4.148437 4.152343-10.878906 0-15.03125zm0 0" fill="#067587"/><path d="m361.8125 365.296875c-3.574219 3.570313-9.054688 4.070313-13.15625 1.496094-2.578125-4.105469-2.082031-9.589844 1.488281-13.160157 3.570313-3.570312 9.054688-4.070312 13.15625-1.488281 2.578125 4.101563 2.082031 9.582031-1.488281 13.152344zm0 0" fill="#1285a0"/><path d="m361.597656 356c-1.777344-1.78125-4.660156-1.78125-6.4375 0-1.78125 1.777344-1.78125 4.660156 0 6.441406 1.777344 1.777344 4.660156 1.777344 6.4375 0 1.78125-1.78125 1.78125-4.664062 0-6.441406zm0 0" fill="#fff"/><path d="m397.457031 400.941406c-3.570312 3.570313-9.054687 4.070313-13.15625 1.496094-.664062-.414062-1.296875-.910156-1.875-1.492188-4.152343-4.148437-4.152343-10.882812 0-15.035156 4.148438-4.148437 10.878907-4.144531 15.03125.003906.578125.582032 1.078125 1.210938 1.488281 1.875 2.578126 4.097657 2.082032 9.582032-1.488281 13.152344zm0 0" fill="#067587"/><path d="m397.457031 400.941406c-3.570312 3.570313-9.054687 4.070313-13.15625 1.496094-2.578125-4.105469-2.082031-9.589844 1.488281-13.160156 3.574219-3.570313 9.054688-4.066406 13.15625-1.488282 2.578126 4.097657 2.082032 9.582032-1.488281 13.152344zm0 0" fill="#1285a0"/><path d="m397.242188 391.644531c-1.777344-1.78125-4.660157-1.78125-6.441407 0-1.777343 1.777344-1.777343 4.660157 0 6.441407 1.78125 1.777343 4.664063 1.777343 6.441407 0 1.78125-1.78125 1.78125-4.664063 0-6.441407zm0 0" fill="#fff"/><path d="m363.585938 416.734375c-.496094 4.011719-6.328126 6.527344-12.242188 3.917969-10.828125-4.773438-19.503906-13.449219-24.277344-24.277344-1.273437-2.875-1.34375-5.914062-.527344-8.167969.808594-2.273437 2.449219-3.738281 4.445313-4.074219 1.355469-.230468 2.707031.042969 3.945313.597657 2.421874 1.109375 4.429687 3.136719 5.578124 5.722656 3.296876 7.472656 9.285157 13.460937 16.757813 16.757813 1.972656.871093 3.582031 2.230468 4.761719 3.890624.375.535157.699218 1.101563.960937 1.6875.554688 1.238282.832031 2.589844.597657 3.945313zm0 0" fill="#ea2f69"/><path d="m362.988281 412.789062c-1.925781 1.792969-5.386719 2.398438-8.605469.96875-9.109374-4.011718-16.40625-11.3125-20.421874-20.417968-1.074219-2.421875-1.007813-5.027344-.113282-6.953125.285156-.625.652344-1.179688 1.082032-1.65625 2.421874 1.109375 4.429687 3.136719 5.578124 5.722656 3.296876 7.472656 9.285157 13.460937 16.757813 16.757813 1.972656.871093 3.582031 2.230468 4.761719 3.890624.375.535157.699218 1.097657.960937 1.6875zm0 0" fill="#ff648d"/><path d="m432.84375 367.761719c-7.957031 2.492187-16.996094.582031-23.304688-5.726563-9.046874-9.042968-9.046874-23.710937 0-32.753906 6.308594-6.308594 15.347657-8.21875 23.304688-5.726562-3.457031 1.078124-6.714844 2.984374-9.457031 5.726562-9.042969 9.042969-9.042969 23.710938 0 32.753906 2.742187 2.742188 6 4.648438 9.457031 5.726563zm0 0" fill="#5c5560"/><path d="m346.089844 495.6875c-7.375 2.792969-14.929688 5.238281-22.621094 7.324219-3.941406-2.640625-7.785156-5.597657-11.535156-8.871094-2.070313-1.796875-4.097656-3.699219-6.070313-5.671875-15.464843-15.464844-28.171875-36.082031-36.207031-58.910156-3.5625-10.136719-6.089844-20.355469-7.542969-30.355469-2.207031-15.140625-1.976562-29.78125.8125-42.875l16.960938 3.605469c-1.515625 7.117187-2.132813 14.808594-1.878907 22.863281.207032 6.53125.980469 13.292969 2.316407 20.175781 1.339843 6.875 3.242187 13.867188 5.695312 20.835938 8.078125 22.96875 21.328125 43.3125 37.3125 57.28125 6.125 5.351562 13.753907 10.710937 22.757813 14.597656zm0 0" fill="#1285a0"/><path d="m268.445312 511.707031c-4.128906.1875-8.277343.292969-12.445312.292969-3.09375 0-6.175781-.050781-9.246094-.167969-8.203125-11.816406-15.027344-25.242187-20.011718-39.558593-2.234376-6.394532-4.054688-12.84375-5.453126-19.226563l.011719-.011719c-4.171875-19.015625-4.601562-37.667968-1.140625-53.9375l16.960938 3.605469c-1.707032 8.046875-2.289063 16.824219-1.765625 26.007813.6875 12.164062 3.289062 25.046874 7.761719 37.859374 5.933593 17.019532 14.699218 32.578126 25.328124 45.136719zm0 0" fill="#1285a0"/><path d="m353.875 492.605469c-2.570312 1.078125-5.171875 2.101562-7.785156 3.082031-7.375 2.792969-14.929688 5.238281-22.621094 7.324219-4.011719 1.097656-8.066406 2.101562-12.152344 3-7.324218 1.609375-14.765625 2.917969-22.296875 3.875l-5.539062-10.1875c-4.421875-8.136719-1.398438-18.324219 6.730469-22.746094l27.960937-15.183594c8.128906-4.417969 18.316406-1.410156 22.738281 6.730469l12.171875 22.402344c.300781.554687.574219 1.128906.792969 1.703125zm0 0" fill="#eaa27f"/><path d="m353.875 492.605469c-2.570312 1.078125-5.171875 2.101562-7.785156 3.082031-7.375 2.792969-14.929688 5.238281-22.621094 7.324219-4.011719 1.097656-8.066406 2.101562-12.152344 3l-8.996094-16.550781c-4.421874-8.140626-1.402343-18.316407 6.738282-22.746094l9.113281-4.941406c8.128906-4.421876 18.316406-1.410157 22.734375 6.726562l12.175781 22.402344c.300781.554687.574219 1.128906.792969 1.703125zm0 0" fill="#f6ba97"/></svg>