<svg id="icons" enable-background="new 0 0 64 64" height="512" viewBox="0 0 64 64" width="512" xmlns="http://www.w3.org/2000/svg"><path d="m46 51h-16-3-4.5-4.5-3v2c0 3.3 2.7 6 6 6h11 11c3.3 0 6-2.7 6-6v-2z" fill="#94c1ff"/><path d="m15 7v23 21h3v-5.99-.01-3-3h28v3 3 .01 5.99h3v-35-9z" fill="#d7e9ff"/><path d="m46 42v3 .01h-19-9v-.01-3z" fill="#fff"/><path d="m18 39h28v3h-28z" fill="#fff"/><path d="m46 45.01v5.99h-16-3v-5.99z" fill="#fff"/><path d="m49 6v1h-34v-1c0-2.771 2.24-5 5-5h24c2.77 0 5 2.24 5 5z" fill="#94c1ff"/><path d="m22.5 51h-4.5v-5.99h9v5.99z" fill="#94c1ff"/><path d="m28 24.229v1.271c0 .83-.67 1.5-1.5 1.5s-1.5-.67-1.5-1.5c0 .83-.67 1.5-1.5 1.5s-1.5-.67-1.5-1.5v-1.16-.11c-.61-.55-1-1.34-1-2.229 0-1.66 1.35-3 3-3 .36 0 .689.069 1 .18.32-.11.65-.18 1-.18 1.66 0 3 1.34 3 3 0 .889-.38 1.688-1 2.228z" fill="#fff"/><path d="m18 16h28v14h-28zm8.5 11c.83 0 1.5-.67 1.5-1.5v-1.271c.62-.54 1-1.34 1-2.229 0-1.66-1.34-3-3-3-.35 0-.68.069-1 .18-.311-.11-.64-.18-1-.18-1.65 0-3 1.34-3 3 0 .89.39 1.68 1 2.229v.11 1.16c0 .83.67 1.5 1.5 1.5s1.5-.67 1.5-1.5c0 .831.67 1.501 1.5 1.501z" fill="#fff"/><path d="m49 53v4c0 3.3-2.7 6-6 6h-22c-3.3 0-6-2.7-6-6v-4c0 3.3 2.7 6 6 6h11 11c3.3 0 6-2.7 6-6z" fill="#5c9eff"/><path d="m32 53c1.11 0 2 .89 2 2 0 1.1-.89 2-2 2-1.1 0-2-.9-2-2 0-1.11.9-2 2-2z" fill="#d7e9ff"/><g fill="#116fff"><path d="m43 60h-22c-3.859 0-7-3.141-7-7 0-.553.447-1 1-1s1 .447 1 1c0 2.757 2.243 5 5 5h22c2.757 0 5-2.243 5-5 0-.553.447-1 1-1s1 .447 1 1c0 3.859-3.141 7-7 7z"/><path d="m29.03 5c-.553 0-1.005-.447-1.005-1s.442-1 .994-1h.011c.552 0 1 .447 1 1s-.448 1-1 1z"/><path d="m35 5h-3c-.553 0-1-.447-1-1s.447-1 1-1h3c.553 0 1 .447 1 1s-.447 1-1 1z"/><path d="m49 7.002c-.553 0-1-.447-1-1 0-2.206-1.794-4-4-4-.553 0-1-.447-1-1s.447-1 1-1c3.309 0 6 2.691 6 6 0 .553-.447 1-1 1z"/><path d="m15 7c-.553 0-1-.447-1-1 0-3.309 2.691-6 6-6 .553 0 1 .447 1 1s-.447 1-1 1c-2.206 0-4 1.794-4 4 0 .553-.447 1-1 1z"/><path d="m44 2h-24c-.553 0-1-.447-1-1s.447-1 1-1h24c.553 0 1 .447 1 1s-.447 1-1 1z"/><path d="m49 8.002h-34c-.553 0-1-.447-1-1s.447-1 1-1h34c.553 0 1 .447 1 1s-.447 1-1 1z"/><path d="m43 64h-22c-3.859 0-7-3.141-7-7v-51c0-.553.447-1 1-1s1 .447 1 1v51c0 2.757 2.243 5 5 5h22c2.757 0 5-2.243 5-5v-50.998c0-.553.447-1 1-1s1 .447 1 1v50.998c0 3.859-3.141 7-7 7z"/><path d="m49 52h-34c-.553 0-1-.447-1-1s.447-1 1-1h34c.553 0 1 .447 1 1s-.447 1-1 1z"/><path d="m32 58c-1.654 0-3-1.346-3-3s1.346-3 3-3 3 1.346 3 3-1.346 3-3 3zm0-4c-.552 0-1 .448-1 1s.448 1 1 1 1-.448 1-1-.448-1-1-1z"/><path d="m46 52.008c-.553 0-1-.447-1-1v-4.997h-26v4.997c0 .553-.447 1-1 1s-1-.447-1-1v-5.997c0-.553.447-1 1-1h28c.553 0 1 .447 1 1v5.997c0 .553-.447 1-1 1z"/><path d="m27.001 52.009c-.553 0-1-.447-1-1v-5.998c0-.553.447-1 1-1s1 .447 1 1v5.998c0 .553-.447 1-1 1z"/><path d="m22.5 52.012c-.553 0-1-.447-1-1v-1c0-.553.447-1 1-1s1 .447 1 1v1c0 .552-.447 1-1 1z"/><path d="m22.529 49.012c-.553 0-1.005-.447-1.005-1s.442-1 .994-1h.011c.552 0 1 .447 1 1s-.448 1-1 1z"/><path d="m43.001 49.012h-13c-.553 0-1-.447-1-1s.447-1 1-1h13c.553 0 1 .447 1 1s-.447 1-1 1z"/><path d="m36 52.012h-5.999c-.553 0-1-.447-1-1s.447-1 1-1h5.999c.553 0 1 .447 1 1s-.447 1-1 1z"/><path d="m46 46.004c-.553 0-1-.447-1-1v-3c0-.553.447-1 1-1s1 .447 1 1v3c0 .553-.447 1-1 1z"/><path d="m46 43.004h-28c-.553 0-1-.447-1-1s.447-1 1-1h28c.553 0 1 .447 1 1s-.447 1-1 1z"/><path d="m18 46.004c-.553 0-1-.447-1-1v-3c0-.553.447-1 1-1s1 .447 1 1v3c0 .553-.447 1-1 1z"/><path d="m46 43.003c-.553 0-1-.447-1-1v-3c0-.553.447-1 1-1s1 .447 1 1v3c0 .553-.447 1-1 1z"/><path d="m46 40.003h-28c-.553 0-1-.447-1-1s.447-1 1-1h28c.553 0 1 .447 1 1s-.447 1-1 1z"/><path d="m18 43.003c-.553 0-1-.447-1-1v-3c0-.553.447-1 1-1s1 .447 1 1v3c0 .553-.447 1-1 1z"/><path d="m46 31.004h-28c-.553 0-1-.447-1-1v-13.998c0-.553.447-1 1-1h28c.553 0 1 .447 1 1v13.998c0 .553-.447 1-1 1zm-27-2h26v-11.998h-26z"/><path d="m23.5 28.005c-1.379 0-2.5-1.121-2.5-2.5 0-.553.447-1 1-1s1 .447 1 1c0 .275.225.5.5.5s.5-.225.5-.5c0-.553.447-1 1-1s1 .447 1 1c0 1.379-1.121 2.5-2.5 2.5z"/><path d="m26.5 28.005c-1.379 0-2.5-1.121-2.5-2.5 0-.553.447-1 1-1s1 .447 1 1c0 .275.225.5.5.5s.5-.225.5-.5c0-.553.447-1 1-1s1 .447 1 1c0 1.379-1.121 2.5-2.5 2.5z"/><path d="m25 26.505c-.553 0-1-.447-1-1v-.497c0-.553.447-1 1-1s1 .447 1 1v.497c0 .553-.447 1-1 1z"/><path d="m28 26.505c-.553 0-1-.447-1-1v-1.268c0-.553.447-1 1-1s1 .447 1 1v1.268c0 .553-.447 1-1 1z"/><path d="m22 26.505c-.553 0-1-.447-1-1v-1.165c0-.553.447-1 1-1s1 .447 1 1v1.165c0 .553-.447 1-1 1z"/><path d="m28 25.237c-.274 0-.548-.112-.745-.333-.368-.412-.333-1.044.078-1.412.423-.379.666-.921.666-1.488 0-1.103-.897-2-2-2-.208 0-.426.041-.665.126-.217.076-.451.076-.668 0-.239-.085-.457-.126-.665-.126-1.103 0-2 .897-2 2 0 .566.242 1.109.666 1.49.41.369.444 1.001.074 1.412-.369.412-1 .443-1.412.074-.844-.759-1.328-1.844-1.328-2.977 0-2.537 2.405-4.565 4.999-3.863 2.599-.703 4.999 1.326 4.999 3.863 0 1.136-.485 2.221-1.332 2.979-.191.171-.43.255-.667.255z"/><path d="m42 21.006h-9c-.553 0-1-.447-1-1s.447-1 1-1h9c.553 0 1 .447 1 1s-.447 1-1 1z"/><path d="m42 24.006h-9c-.553 0-1-.447-1-1s.447-1 1-1h9c.553 0 1 .447 1 1s-.447 1-1 1z"/><path d="m37 27.006h-4c-.553 0-1-.447-1-1s.447-1 1-1h4c.553 0 1 .447 1 1s-.447 1-1 1z"/></g></svg>