<?xml version="1.0" encoding="iso-8859-1"?>
<!-- Generator: Adobe Illustrator 19.0.0, SVG Export Plug-In . SVG Version: 6.00 Build 0)  -->
<svg version="1.1" id="Capa_1" xmlns="http://www.w3.org/2000/svg" xmlns:xlink="http://www.w3.org/1999/xlink" x="0px" y="0px"
	 viewBox="0 0 438.857 438.857" style="enable-background:new 0 0 438.857 438.857;" xml:space="preserve">
<g>
	<path style="fill:#1185E0;" d="M219.429,321.829c-48.065,0-87.249-39.184-87.249-87.249V87.249C132.18,39.184,171.363,0,219.429,0
		s87.249,39.184,87.249,87.249v146.808C306.678,282.645,267.494,321.829,219.429,321.829z M219.429,31.347
		c-30.824,0-55.902,25.078-55.902,55.902V234.58c0,30.824,25.078,55.902,55.902,55.902s55.902-25.078,55.902-56.424V87.249
		C275.331,56.424,250.253,31.347,219.429,31.347z"/>
	<path style="fill:#1185E0;" d="M345.861,159.869c-8.882,0-15.673,6.792-15.673,15.673v59.037
		c0,61.127-49.633,110.759-110.759,110.759S108.669,295.706,108.669,234.58v-59.037c0-8.882-6.792-15.673-15.673-15.673
		s-15.673,6.792-15.673,15.673v59.037c0,73.143,55.38,133.224,126.433,141.061v31.869h-46.498c-8.882,0-15.673,6.792-15.673,15.673
		c0,8.882,6.792,15.673,15.673,15.673H281.6c8.882,0,15.673-6.792,15.673-15.673c0-8.882-6.792-15.673-15.673-15.673h-46.498
		v-31.869c71.053-7.837,126.433-67.918,126.433-141.061v-59.037C361.535,166.661,354.743,159.869,345.861,159.869z"/>
</g>
<g>
	<path style="fill:#4DCFE0;" d="M219.429,120.163c-20.376,0-36.571-16.196-36.571-36.571s16.196-36.571,36.571-36.571
		S256,63.216,256,83.592S239.804,120.163,219.429,120.163z M219.429,78.367c-3.135,0-5.224,2.09-5.224,5.224s2.09,5.224,5.224,5.224
		s5.224-2.09,5.224-5.224S222.563,78.367,219.429,78.367z"/>
	<path style="fill:#4DCFE0;" d="M219.429,198.531c-20.376,0-36.571-16.196-36.571-36.571s16.196-36.571,36.571-36.571
		S256,141.584,256,161.959S239.804,198.531,219.429,198.531z M219.429,156.735c-3.135,0-5.224,2.09-5.224,5.224
		s2.09,5.224,5.224,5.224s5.224-2.09,5.224-5.224S222.563,156.735,219.429,156.735z"/>
	<path style="fill:#4DCFE0;" d="M219.429,276.898c-20.376,0-36.571-16.196-36.571-36.571s16.196-36.571,36.571-36.571
		S256,219.951,256,240.327S239.804,276.898,219.429,276.898z M219.429,235.102c-3.135,0-5.224,2.09-5.224,5.224
		s2.09,5.224,5.224,5.224s5.224-2.09,5.224-5.224S222.563,235.102,219.429,235.102z"/>
</g>
<g>
</g>
<g>
</g>
<g>
</g>
<g>
</g>
<g>
</g>
<g>
</g>
<g>
</g>
<g>
</g>
<g>
</g>
<g>
</g>
<g>
</g>
<g>
</g>
<g>
</g>
<g>
</g>
<g>
</g>
</svg>
