<svg height="724pt" viewBox="-100 0 724 724.00037" width="724pt" xmlns="http://www.w3.org/2000/svg"><path d="m262.101562 87.398438c13.796876 0 25-11.199219 25-24.898438 0-13.800781-11.203124-25-24.902343-25-13.800781 0-25 11.199219-25 24.898438 0 4.402343 1.101562 8.703124 3.300781 12.5 4.5 7.703124 12.699219 12.5 21.601562 12.5zm0 0" fill="#5f4d37"/><path d="m112.300781 149.800781h299.597657v-74.902343c0-13.796876-11.199219-25-25-25h-41.796876c-10.5-29.898438-38.800781-50-70.5-49.898438h-25c-31.703124 0-60 20-70.5 49.898438h-41.800781c-13.800781 0-25 11.203124-25 25zm128.199219-99.902343c6.898438-11.796876 22.101562-15.796876 33.898438-8.898438 11.800781 6.898438 15.800781 22.101562 8.902343 33.898438-6.902343 11.800781-22.101562 15.800781-33.902343 8.902343-7.597657-4.402343-12.296876-12.601562-12.296876-21.402343 0-4.398438 1.199219-8.699219 3.398438-12.5zm0 0" fill="#726658"/><path d="m0 724h524.199219v-649.101562h-112.300781v49.902343h62.402343v549.300781h-424.402343v-549.300781h62.402343v-49.902343h-112.300781zm0 0" fill="#c2b59b"/><path d="m237.101562 349.5h50v-49.898438h49.898438v-49.902343h-49.898438v-50h-50v50h-49.902343v49.902343h49.902343zm0 0" fill="#ff7754"/><path d="m174.699219 561.699219h87.402343v-212.199219h-25v-49.898438h-49.902343v-49.902343h49.902343v-50h25v-49.898438h-149.800781v-25h-62.402343v549.199219h212.203124v-112.300781zm-62.398438-99.800781" fill="#ffd839"/><path d="m474.300781 124.800781h-62.402343v25h-149.796876v49.898438h25v50h49.898438v49.902343h-49.898438v49.898438h-25v112.398438h149.796876-149.796876v49.902343h149.796876-149.796876v49.898438h149.796876-149.796876v112.402343h212.199219zm0 0" fill="#ffe26e"/><g fill="#ffbcab"><path d="m174.699219 549.199219h237.199219v25h-237.199219zm0 0"/><path d="m174.699219 499.300781h237.199219v25h-237.199219zm0 0"/><path d="m174.699219 449.398438h237.199219v25h-237.199219zm0 0"/><path d="m112.300781 449.398438h37.398438v25h-37.398438zm0 0"/><path d="m112.300781 549.199219h37.398438v25h-37.398438zm0 0"/><path d="m112.300781 499.300781h37.398438v25h-37.398438zm0 0"/></g></svg>