<svg height="493pt" viewBox="0 -3 493.212 493" width="493pt" xmlns="http://www.w3.org/2000/svg"><path d="m485.210938 409.09375h-472c-2.207032 0-4-1.792969-4-4v-34.960938c0-2.207031 1.792968-4 4-4h472c2.210937 0 4 1.792969 4 4v34.957032c0 2.210937-1.789063 4.003906-4 4.003906zm0 0" fill="#eaa97d"/><path d="m485.210938 413.089844h-472c-4.410157 0-8-3.585938-8-8v-34.957032c0-4.410156 3.589843-8 8-8h472c4.414062 0 8 3.589844 8 8v34.957032c0 4.414062-3.585938 8-8 8zm-472-42.957032v34.957032h472.007812l-.007812-34.957032zm0 0" fill="#3762cc"/><path d="m206.949219 409.09375h84.523437v74.308594h-84.523437zm0 0" fill="#eaa97d"/><path d="m291.476562 487.402344h-84.527343c-2.210938 0-4-1.789063-4-4v-74.308594c0-2.210938 1.789062-4 4-4h84.527343c2.207032 0 4 1.789062 4 4v74.308594c0 2.210937-1.792968 4-4 4zm-80.527343-8h76.527343v-66.308594h-76.527343zm0 0" fill="#3762cc"/><path d="m390.015625 204.78125c-40.519531 0-73.363281 32.84375-73.363281 73.359375v38.695313c0 33.171874 22.023437 61.1875 52.238281 70.261718v18.550782h64.175781v-29.429688c18.363282-13.332031 30.3125-34.957031 30.3125-59.382812v-38.695313c0-40.515625-32.847656-73.359375-73.363281-73.359375zm0 0" fill="#f9cfcf"/><path d="m153.515625 355.855469c-.011719-.21875-.03125-.4375-.042969-.65625-.027344-.425781-.058594-.851563-.09375-1.269531-.023437-.265626-.054687-.527344-.085937-.785157-.039063-.371093-.085938-.746093-.136719-1.113281-.039062-.28125-.082031-.5625-.125-.839844-.054688-.34375-.117188-.679687-.179688-1.019531-.054687-.296875-.109374-.59375-.171874-.882813-.0625-.3125-.136719-.617187-.207032-.925781-.074218-.3125-.144531-.628906-.222656-.9375-.0625-.25-.136719-.5-.207031-.75-.378907-1.355469-.820313-2.6875-1.328125-3.980469-.039063-.109374-.082032-.222656-.125-.328124-.171875-.429688-.355469-.851563-.539063-1.273438-.054687-.121094-.105469-.238281-.15625-.359375-.195312-.425781-.398437-.851563-.601562-1.273437-.046875-.09375-.09375-.1875-.140625-.28125-.222656-.445313-.453125-.886719-.695313-1.324219-.019531-.039063-.042969-.078125-.0625-.117188-6.824219-12.351562-19.742187-20.863281-34.699219-21.476562l-.0625.082031c-.007812.027344-.011718.054688-.019531.082031-.027343.019531-.0625.035157-.09375.058594l-.007812.007813h-.007813c-16.316406 10.742187-37.46875 10.722656-53.765625-.066407l-.011719-.007812c-.003906-.011719-.003906-.019531-.007812-.027344h-.035156c-11.789063 1.039063-22.160156 6.996094-29.0625 15.800781h-.003906c-.027344.03125-.050782.070313-.078126.101563-.226562.289062-.441406.582031-.660156.878906-.136718.183594-.269531.367187-.402344.550781-.207031.289063-.410156.582032-.605468.878906-.136719.199219-.265625.398438-.398438.597657-.191406.292969-.375.585937-.558594.886719-.128906.210937-.257812.425781-.382812.640624-.175781.292969-.347656.589844-.515625.890626-.125.226562-.246094.453124-.367187.679687-.160157.296875-.320313.59375-.46875.894531-.121094.242188-.234376.488282-.351563.734375-.140625.292969-.285156.585938-.417969.882813-.128906.292968-.253906.589844-.375.882812-.199218.46875-.390625.945313-.570312 1.425782-.125.324218-.25.652343-.367188.984374-.089844.261719-.171875.523438-.257812.789063-.105469.320313-.210938.636719-.308594.960937-.078125.265626-.152344.535157-.226562.804688-.089844.324219-.179688.652344-.261719.980469-.070313.269531-.132813.542969-.195313.8125-.078125.335937-.152344.671875-.21875 1.011719-.054687.269531-.105468.539062-.15625.808593-.066406.351563-.121094.703125-.179687 1.054688-.039063.265625-.082031.527343-.117188.792969-.050781.375-.09375.75-.136719 1.125-.027343.25-.058593.5-.078124.75-.039063.417968-.066407.84375-.089844 1.265624-.011719.210938-.03125.421876-.042969.632813-.027344.636719-.042969 1.277344-.042969 1.921875v8.324219h131.777344v-8.324219c0-.65625-.019531-1.308594-.046875-1.957031zm0 0" fill="#a4c9ff"/><path d="m60.097656 317.484375-.304687-.796875c.082031.269531.183593.535156.304687.796875zm0 0" fill="#f9cfcf"/><path d="m113.523438 316.769531-.183594.488281c.0625-.160156.128906-.320312.183594-.488281zm0 0" fill="#f9cfcf"/><path d="m87.03125 304.761719c-9.9375 0-19.292969-2.472657-27.5-6.820313v17.050782c0 .488281.078125.964843.195312 1.429687l.011719.007813c16.332031 10.808593 37.542969 10.808593 53.875 0 .121094-.480469.203125-.96875.203125-1.46875v-16.636719c-8.035156 4.113281-17.136718 6.4375-26.785156 6.4375zm0 0" fill="#f9cfcf"/><path d="m145.949219 223.453125c-.128907 0-.25.015625-.375.015625v-5.566406c0-32.527344-26.367188-58.898438-58.898438-58.898438s-58.902343 26.367188-58.902343 58.898438v5.566406c-.128907 0-.246094-.015625-.375-.015625-9.921876 0-17.96875 8.042969-17.96875 17.96875s8.046874 17.96875 17.96875 17.96875c.652343 0 1.296874-.039063 1.929687-.105469 6.078125 26.058594 29.4375 45.476563 57.347656 45.476563 27.90625 0 51.265625-19.417969 57.34375-45.476563.632813.070313 1.277344.105469 1.929688.105469 9.921875 0 17.96875-8.042969 17.96875-17.96875s-8.046875-17.96875-17.96875-17.96875zm0 0" fill="#f9cfcf"/><path d="m86.675781 308.757812c-28.292969 0-52.6875-18.503906-60.417969-45.398437-11.585937-.597656-20.828124-10.210937-20.828124-21.9375 0-10.878906 7.949218-19.9375 18.34375-21.671875v-1.847656c0-34.683594 28.214843-62.898438 62.902343-62.898438 34.683594 0 62.898438 28.214844 62.898438 62.898438v1.847656c10.390625 1.734375 18.339843 10.792969 18.339843 21.671875 0 11.726563-9.238281 21.339844-20.824218 21.9375-7.730469 26.894531-32.125 45.398437-60.414063 45.398437zm-57.34375-53.472656c1.839844 0 3.464844 1.265625 3.890625 3.089844 5.820313 24.953125 27.800782 42.382812 53.453125 42.382812 25.648438 0 47.625-17.429687 53.449219-42.382812.460938-1.96875 2.339844-3.285156 4.320312-3.070312.492188.054687.992188.085937 1.503907.085937 7.703125 0 13.964843-6.265625 13.964843-13.96875 0-7.683594-6.230468-13.9375-13.902343-13.972656-.15625.007812-.367188.019531-.4375.019531-1.046875 0-2.054688-.414062-2.804688-1.152344-.765625-.75-1.195312-1.777344-1.195312-2.847656v-5.566406c0-30.273438-24.628907-54.898438-54.898438-54.898438-30.277343 0-54.902343 24.625-54.902343 54.898438v5.566406c0 1.070312-.429688 2.097656-1.195313 2.847656-.765625.753906-1.765625 1.179688-2.871094 1.148438-.074219 0-.324219-.011719-.398437-.015625-7.613282 0-13.878906 6.265625-13.878906 13.96875s6.269531 13.96875 13.96875 13.96875c.507812 0 1.011718-.03125 1.507812-.082031.144531-.011719.285156-.019532.425781-.019532zm0 0" fill="#3762cc"/><path d="m153.5625 370.132812h-131.78125c-2.207031 0-4-1.789062-4-4v-8.324218c0-22.507813 15.980469-41.1875 37.75-44.914063v-14.816406c0-1.402344.734375-2.703125 1.9375-3.425781 1.203125-.726563 2.699219-.765625 3.933594-.109375 7.851562 4.15625 16.714844 6.355469 25.628906 6.355469 8.792969 0 17.191406-2.019532 24.960938-6 1.238281-.632813 2.722656-.578126 3.910156.148437 1.191406.726563 1.914062 2.019531 1.914062 3.414063v14.132812c22.582032 2.863281 39.742188 22.011719 39.742188 45.214844v8.324218c.003906 2.210938-1.789063 4-3.996094 4zm-127.78125-8h123.78125v-4.324218c0-20.234375-15.828125-36.726563-36.03125-37.550782-1.109375-.046874-2.144531-.546874-2.871094-1.386718-.71875-.835938-1.0625-1.9375-.945312-3.039063l.101562-.949219v-10.242187c-7.234375 2.828125-14.871094 4.253906-22.785156 4.253906-8.050781 0-16.0625-1.5625-23.5-4.554687v10.789062c0 .066406.007812.1875.058594.410156.242187 1.121094-.007813 2.296876-.691406 3.222657-.679688.921875-1.722657 1.511719-2.867188 1.613281-19.210938 1.6875-34.253906 18.132812-34.253906 37.433594v4.324218zm0 0" fill="#3762cc"/><path d="m126.339844 208.730469h31.109375c2.300781 0 4.167969-1.863281 4.167969-4.164063v-23.796875c0-26.460937-21.453126-47.910156-47.914063-47.910156h-1.484375c-6.902344 0-12.5 5.59375-12.5 12.496094v36.753906c0 14.703125 11.917969 26.621094 26.621094 26.621094zm0 0" fill="#4671c6"/><path d="m62.390625 208.730469h-54.207031c-2.308594 0-4.179688-1.871094-4.179688-4.179688v-19.679687c0-28.726563 23.285156-52.011719 52.011719-52.011719h31.34375c6.894531 0 12.480469 5.589844 12.480469 12.484375v25.941406c0 20.679688-16.765625 37.445313-37.449219 37.445313zm0 0" fill="#4671c6"/><g fill="#3762cc"><path d="m157.449219 212.730469h-31.109375c-16.882813 0-30.621094-13.734375-30.621094-30.617188v-36.753906c0-9.097656 7.398438-16.5 16.496094-16.5h1.488281c28.625 0 51.910156 23.289063 51.910156 51.914063v23.792968c.003907 4.5-3.660156 8.164063-8.164062 8.164063zm-45.230469-75.871094c-4.6875 0-8.5 3.8125-8.5 8.5v36.753906c0 12.472657 10.148438 22.617188 22.625 22.617188h31.109375c.089844 0 .164063-.074219.164063-.164063v-23.796875c0-24.210937-19.699219-43.910156-43.910157-43.910156zm0 0"/><path d="m62.390625 212.730469h-54.207031c-4.511719 0-8.183594-3.667969-8.183594-8.179688v-19.679687c0-30.882813 25.125-56.011719 56.011719-56.011719h31.347656c9.085937 0 16.480469 7.394531 16.480469 16.484375v25.941406c0 22.851563-18.59375 41.445313-41.449219 41.445313zm-6.378906-75.871094c-26.472657 0-48.011719 21.539063-48.011719 48.011719v19.679687c0 .097657.082031.179688.183594.179688h54.207031c18.445313 0 33.453125-15.003907 33.453125-33.445313v-25.941406c0-4.679688-3.804688-8.484375-8.484375-8.484375zm0 0"/><path d="m55.578125 243.78125c-3.304687 0-5.988281-2.679688-5.988281-5.988281v-9.984375c0-3.308594 2.683594-5.992188 5.988281-5.992188 3.308594 0 5.992187 2.683594 5.992187 5.992188v9.984375c0 3.308593-2.683593 5.988281-5.992187 5.988281zm0 0"/><path d="m117.769531 243.78125c-3.308593 0-5.992187-2.679688-5.992187-5.988281v-9.984375c0-3.308594 2.683594-5.992188 5.992187-5.992188 3.304688 0 5.988281 2.683594 5.988281 5.992188v9.984375c0 3.308593-2.683593 5.988281-5.988281 5.988281zm0 0"/><path d="m62.605469 258.460938h-11.226563c-12.664062 0-22.96875-10.304688-22.96875-22.96875 0-12.664063 10.304688-22.964844 22.96875-22.964844h11.226563c12.664062 0 22.96875 10.300781 22.96875 22.964844 0 12.664062-10.304688 22.96875-22.96875 22.96875zm-11.226563-37.9375c-8.253906 0-14.96875 6.714843-14.96875 14.96875 0 8.25 6.714844 14.96875 14.96875 14.96875h11.226563c8.253906 0 14.96875-6.714844 14.96875-14.96875 0-8.253907-6.714844-14.96875-14.96875-14.96875zm0 0"/><path d="m121.96875 258.460938h-11.226562c-12.664063 0-22.964844-10.304688-22.964844-22.96875 0-12.664063 10.300781-22.964844 22.964844-22.964844h11.226562c12.664062 0 22.96875 10.300781 22.96875 22.964844 0 12.664062-10.304688 22.96875-22.96875 22.96875zm-11.226562-37.9375c-8.253907 0-14.96875 6.714843-14.96875 14.96875 0 8.25 6.714843 14.96875 14.96875 14.96875h11.222656c8.253906 0 14.96875-6.714844 14.96875-14.96875 0-8.253907-6.714844-14.96875-14.96875-14.96875zm0 0"/><path d="m96.40625 240.410156h-20.296875c-2.207031 0-4-1.789062-4-4 0-2.207031 1.792969-4 4-4h20.296875c2.210938 0 4 1.792969 4 4 0 2.210938-1.789062 4-4 4zm0 0"/></g><path d="m100.121094 275.464844c0-3.347656-6.207032-6.0625-13.863282-6.0625s-13.863281 2.714844-13.863281 6.0625 6.207031 6.0625 13.863281 6.0625 13.863282-2.714844 13.863282-6.0625zm0 0" fill="#f9a7a7"/><path d="m319.507812 268.3125-10.769531-66.550781h-133.765625l-10.757812 66.476562-.019532.074219c-1.46875 5.527344-2.210937 11.210938-2.210937 16.914062v.003907c0 14 11.714844 25.347656 26.164063 25.347656h107.40625c14.453124 0 26.164062-11.347656 26.164062-25.347656v-.003907c0-5.703124-.742188-11.386718-2.210938-16.914062zm0 0" fill="#4671c6"/><path d="m295.554688 314.578125h-107.40625c-16.628907 0-30.164063-13.167969-30.164063-29.347656 0-6.011719.78125-12.007813 2.3125-17.832031l10.722656-66.277344c.316407-1.9375 1.988281-3.363282 3.949219-3.363282h133.769531c1.964844 0 3.636719 1.425782 3.953125 3.363282l10.734375 66.355468c1.519531 5.796876 2.292969 11.765626 2.292969 17.75 0 16.183594-13.53125 29.351563-30.164062 29.351563zm-117.179688-108.816406-10.210938 63.117187c-.023437.140625-.050781.28125-.089843.417969-1.386719 5.230469-2.085938 10.578125-2.085938 15.929687 0 11.773438 9.941407 21.351563 22.160157 21.351563h107.40625c12.222656 0 22.164062-9.574219 22.164062-21.347656 0-5.359375-.699219-10.703125-2.074219-15.890625-.035156-.128906-.0625-.257813-.085937-.390625l-10.21875-63.1875zm0 0" fill="#3762cc"/><path d="m308.691406 355.859375c-.007812-.222656-.027344-.4375-.042968-.660156-.023438-.425781-.054688-.847657-.09375-1.269531-.023438-.261719-.050782-.523438-.082032-.785157-.042968-.371093-.085937-.742187-.136718-1.109375-.042969-.28125-.082032-.5625-.128907-.84375-.054687-.339844-.113281-.679687-.175781-1.019531-.054688-.292969-.109375-.589844-.171875-.882813-.066406-.308593-.136719-.617187-.210937-.925781-.070313-.3125-.140626-.625-.21875-.933593-.066407-.253907-.140626-.5-.210938-.75-.375-1.359376-.816406-2.6875-1.324219-3.984376-.042969-.109374-.082031-.21875-.125-.328124-.171875-.429688-.355469-.851563-.542969-1.273438-.050781-.117188-.101562-.238281-.15625-.355469-.191406-.429687-.394531-.855469-.601562-1.273437-.042969-.09375-.09375-.1875-.140625-.28125-.222656-.449219-.453125-.890625-.691406-1.324219-.023438-.039063-.042969-.078125-.066407-.117187-6.824218-12.351563-19.738281-20.867188-34.699218-21.476563l-.101563.128906h.078125l-4.886718 12.871094c-1.175782 3.101563-4.148438 5.148437-7.464844 5.148437h-29.28125c-3.320313 0-6.289063-2.046874-7.46875-5.148437l-4.238282-11.175781c-.296874-.53125-.519531-1.101563-.644531-1.695313-11.789062 1.039063-22.160156 6.996094-29.0625 15.800781h-.003906c-.027344.03125-.050781.070313-.078125.101563-.226562.289063-.441406.582031-.660156.878906-.132813.183594-.269532.367188-.402344.550781-.207031.289063-.410156.582032-.605469.878907-.136719.199219-.265625.398437-.398437.597656-.191406.292969-.375.585937-.558594.886719-.128906.210937-.257812.425781-.382812.640625-.175782.292969-.347657.589843-.515626.890625-.125.226562-.246093.453125-.367187.679687-.15625.296875-.316406.59375-.46875.894531-.121094.242188-.234375.488282-.351563.734376-.140624.292968-.285156.585937-.417968.882812-.128906.292969-.25.589844-.375.882812-.199219.46875-.390625.945313-.570313 1.425782-.125.324218-.25.652344-.367187.984375-.089844.261719-.171875.523437-.257813.789062-.105469.320313-.210937.636719-.308593.960938-.078126.265625-.152344.535156-.226563.804687-.089844.328125-.179687.652344-.261719.980469-.070312.269531-.128906.542969-.195312.816406-.078125.335938-.152344.671875-.21875 1.011719-.054688.265625-.109375.539062-.15625.808594-.0625.347656-.121094.699218-.179688 1.054687-.039062.265625-.082031.527344-.117187.792969-.050781.371094-.09375.75-.136719 1.125-.027344.25-.058594.496094-.078125.746094-.039063.421875-.066406.84375-.089844 1.265625-.011719.210937-.03125.421875-.039062.636719-.03125.636718-.046875 1.277343-.046875 1.917968v8.324219h131.777344v-8.324219c-.003907-.660156-.019532-1.3125-.050782-1.957031zm0 0" fill="#6bdddd"/><path d="m301.125 228.960938c-.125 0-.246094.015624-.371094.015624v-5.566406c0-32.527344-26.371094-58.898437-58.902344-58.898437s-58.902343 26.367187-58.902343 58.898437v5.566406c-.125 0-.246094-.015624-.371094-.015624-9.925781 0-17.96875 8.046874-17.96875 17.96875 0 9.925781 8.042969 17.96875 17.96875 17.96875.652344 0 1.292969-.035157 1.929687-.105469 6.078126 26.058593 29.433594 45.476562 57.34375 45.476562 27.910157 0 51.269532-19.417969 57.347657-45.476562.632812.070312 1.273437.105469 1.925781.105469 9.925781 0 17.972656-8.042969 17.972656-17.96875 0-9.925782-8.046875-17.96875-17.972656-17.96875zm0 0" fill="#f9cfcf"/><path d="m241.851562 314.265625c-28.292968 0-52.683593-18.503906-60.414062-45.398437-11.585938-.597657-20.828125-10.210938-20.828125-21.9375 0-10.878907 7.949219-19.9375 18.34375-21.671876v-1.84375c0-34.683593 28.214844-62.902343 62.898437-62.902343 34.683594 0 62.902344 28.21875 62.902344 62.902343v1.84375c10.390625 1.734376 18.34375 10.792969 18.34375 21.671876 0 11.726562-9.242187 21.339843-20.828125 21.9375-7.734375 26.894531-32.125 45.398437-60.417969 45.398437zm-57.339843-53.472656c1.835937 0 3.460937 1.261719 3.886719 3.089843 5.824218 24.957032 27.800781 42.382813 53.453124 42.382813 25.652344 0 47.628907-17.425781 53.453126-42.382813.457031-1.96875 2.316406-3.285156 4.316406-3.070312.496094.054688.996094.085938 1.503906.085938 7.703125 0 13.972656-6.265626 13.972656-13.96875 0-7.683594-6.234375-13.9375-13.90625-13.972657-.160156.007813-.371094.015625-.4375.019531-1.050781 0-2.058594-.414062-2.808594-1.152343-.761718-.75-1.191406-1.777344-1.191406-2.847657v-5.566406c0-30.269531-24.628906-54.898437-54.902344-54.898437-30.273437 0-54.898437 24.625-54.898437 54.898437v5.566406c0 1.070313-.429687 2.097657-1.195313 2.847657-.765624.753906-1.847656 1.21875-2.871093 1.148437-.074219 0-.320313-.011718-.394531-.015625-7.617188 0-13.882813 6.265625-13.882813 13.96875s6.265625 13.96875 13.96875 13.96875c.511719 0 1.011719-.03125 1.503906-.082031.144531-.015625.285157-.019531.429688-.019531zm0 0" fill="#3762cc"/><path d="m217.609375 214.90625h-40.835937c-1 0-1.808594-.808594-1.808594-1.808594v-15.027344c0-26.355468 21.363281-47.722656 47.722656-47.722656h19.980469c6.148437 0 11.132812 4.984375 11.132812 11.132813v17.234375c0 19.988281-16.203125 36.191406-36.191406 36.191406zm0 0" fill="#4671c6"/><path d="m284.011719 214.90625h23.214843c.835938 0 1.511719-.675781 1.511719-1.511719v-19.382812c0-24.113281-19.546875-43.660157-43.664062-43.660157h-.3125c-6.054688 0-10.960938 4.90625-10.960938 10.957032v23.386718c0 16.683594 13.527344 30.210938 30.210938 30.210938zm0 0" fill="#4671c6"/><path d="m217.613281 218.90625h-40.839843c-3.203126 0-5.808594-2.605469-5.808594-5.808594v-15.027344c0-28.519531 23.207031-51.722656 51.722656-51.722656h19.984375c8.34375 0 15.128906 6.785156 15.128906 15.128906v17.238282c0 22.160156-18.027343 40.191406-40.1875 40.191406zm-38.648437-8h38.648437c17.75 0 32.1875-14.441406 32.1875-32.191406v-17.234375c0-3.933594-3.199219-7.132813-7.128906-7.132813h-19.980469c-24.113281 0-43.722656 19.613282-43.722656 43.722656v12.835938zm0 0" fill="#3762cc"/><path d="m307.230469 218.90625h-23.214844c-18.867187 0-34.210937-15.347656-34.210937-34.210938v-23.390624c0-8.25 6.710937-14.957032 14.960937-14.957032h.3125c26.28125 0 47.664063 21.378906 47.664063 47.664063v19.382812c-.003907 3.039063-2.472657 5.511719-5.511719 5.511719zm-42.46875-64.558594c-3.835938 0-6.960938 3.121094-6.960938 6.957032v23.390624c0 14.453126 11.757813 26.207032 26.210938 26.207032h20.726562v-16.894532c0-21.871093-17.789062-39.664062-39.664062-39.664062h-.3125zm0 0" fill="#3762cc"/><path d="m213.511719 253.28125c-3.308594 0-5.988281-2.679688-5.988281-5.988281v-9.984375c0-3.308594 2.679687-5.992188 5.988281-5.992188 3.308593 0 5.992187 2.683594 5.992187 5.992188v9.984375c0 3.308593-2.683594 5.988281-5.992187 5.988281zm0 0" fill="#3762cc"/><path d="m270.191406 253.28125c-3.308594 0-5.988281-2.679688-5.988281-5.988281v-9.984375c0-3.308594 2.679687-5.992188 5.988281-5.992188s5.992188 2.683594 5.992188 5.992188v9.984375c0 3.308593-2.683594 5.988281-5.992188 5.988281zm0 0" fill="#3762cc"/><path d="m241.851562 290.160156c-4.945312 0-8.949218-4.007812-8.949218-8.949218v-2.457032c0-4.945312 4.007812-8.953125 8.949218-8.953125 4.945313 0 8.949219 4.007813 8.949219 8.953125v2.457032c0 4.941406-4.003906 8.949218-8.949219 8.949218zm0 0" fill="#f9a7a7"/><path d="m221.699219 334.414062h40.304687l6.839844-18.019531h-.042969c.113281-.46875.195313-.945312.195313-1.433593v-11.320313c-8.121094 4.230469-17.351563 6.628906-27.140625 6.628906-9.792969 0-19.019531-2.398437-27.144531-6.628906v11.351563c0 .476562.078124.945312.1875 1.398437h-.035157zm0 0" fill="#f9cfcf"/><path d="m308.738281 370.132812h-131.777343c-2.207032 0-4-1.789062-4-4v-8.324218c0-.699219.019531-1.398438.046874-2.089844l.042969-.683594c.027344-.488281.058594-.953125.101563-1.414062l.066406-.621094c.066406-.601562.113281-1.011719.167969-1.421875l.109375-.730469c.082031-.527344.144531-.914062.21875-1.304687l.410156-1.980469c.070312-.308594.140625-.613281.214844-.910156.09375-.367188.191406-.722656.292968-1.082032l.867188-2.796874c.097656-.273438.203125-.554688.308594-.832032l.085937-.234375c.207031-.539062.414063-1.058593.632813-1.574219.167968-.410156.285156-.683593.40625-.960937.113281-.25.230468-.503906.355468-.757813l.492188-1.019531c.160156-.320312.324219-.625.484375-.929687.160156-.300782.296875-.558594.441406-.8125.167969-.304688.359375-.632813.550781-.957032l.425782-.714843c.199218-.320313.402344-.640625.609375-.957031l.445312-.667969c.210938-.3125.4375-.640625.664063-.960938l.433594-.59375c.242187-.328125.476562-.644531.71875-.953125.035156-.046875.066406-.085937.101562-.132812 6.96875-8.886719 17.039062-14.878906 28.050781-16.808594v-9.265625c0-1.398437.730469-2.691406 1.925781-3.417969 1.191407-.726562 2.679688-.773437 3.921876-.128906 7.871093 4.097656 16.378906 6.175781 25.292968 6.175781 8.917969 0 17.429688-2.078125 25.292969-6.175781 1.242187-.644531 2.730469-.597656 3.921875.128906 1.199219.726563 1.925781 2.019532 1.925781 3.417969v8.964844c14.242188 1.859375 27.058594 10.496093 34.078125 23.199219.335938.605468.589844 1.09375.835938 1.589843l.140625.277344c.238281.488281.460937.949219.671875 1.417969.007812.015625.082031.195312.089844.207031.285156.644531.484374 1.109375.671874 1.578125l.109376.273438c.589843 1.527343 1.078124 2.996093 1.484374 4.460937l.46875 1.828125c0 .007812.042969.195312.046876.203125l.371093 1.792969c.070313.375.136719.75.195313 1.121094.046875.304687.09375.613281.136718.921874.058594.394532.105469.8125.152344 1.226563l.09375.867187c.039063.453126.074219.917969.101563 1.386719l.046875.71875c.03125.707031.050781 1.417969.050781 2.132813v8.324218c.003906 2.210938-1.785156 4-3.996094 4zm-127.777343-8h123.78125v-4.324218c0-.59375-.019532-1.183594-.042969-1.773438l-.042969-.589844c-.023438-.390624-.046875-.769531-.082031-1.148437l-.058594-.546875c-.054687-.496094-.09375-.824219-.140625-1.152344l-.113281-.773437c-.050781-.3125-.109375-.621094-.164063-.929688l-.6875-2.984375c-.375-1.375-.78125-2.582031-1.238281-3.765625l3.613281-1.75-3.710937 1.496094c-.171875-.425781-.335938-.808594-.503907-1.191406l-.09375-.207031c-.222656-.503907-.40625-.886719-.597656-1.269532l-.125-.253906c-.199218-.402344-.40625-.792969-.621094-1.183594-6.316406-11.429687-18.140624-18.832031-31-19.503906-.6875.054688-1.386718-.066406-2.035156-.378906-1.695312-.824219-2.617187-2.675782-2.171875-4.503906.058594-.261719.070313-.382813.070313-.4375v-5.101563c-14.667969 5.792969-31.617188 5.792969-46.285156 0v5.132813c0 .058593.007812.195312.074218.46875.285156 1.191406.007813 2.445312-.75 3.410156-.714844.910156-1.792968 1.457031-2.941406 1.515625-10.242188.933593-19.765625 6.132812-26.144531 14.273437-.03125.039063-.0625.078125-.09375.117188-.238281.308594-.410157.542968-.585938.777344l-.34375.476562c-.203125.28125-.378906.539062-.558593.808594l-.363282.542968c-.167968.261719-.339844.527344-.507812.800782l-.347656.578125c-.152344.261719-.304688.523437-.453126.792969l-1.726562 3.523437c-.253906.601563-.421875 1.027344-.585938 1.460937l-.996093 3.011719c-.132813.484375-.214844.777344-.292969 1.078125l-.507812 2.351563c-.058594.328125-.113282.640625-.160157.960937l-.109375.703125c-.046875.351563-.085937.691407-.125 1.035157l-.070312.65625c-.039063.402343-.0625.785156-.085938 1.160156l-.039062.582031c-.023438.566406-.039063 1.148437-.039063 1.734375v4.320312zm0 0" fill="#3762cc"/><path d="m486.359375 483.402344h-172.25v-29.667969c0-26.554687 21.527344-48.085937 48.085937-48.085937h76.082032c26.558594 0 48.085937 21.53125 48.085937 48.085937v29.667969zm0 0" fill="#e0ebfc"/><path d="m336.378906 315.6875c-3.492187 0-6.320312-2.832031-6.320312-6.324219v-10.539062c0-3.488281 2.828125-6.320313 6.320312-6.320313 3.492188 0 6.324219 2.832032 6.324219 6.320313v10.539062c0 3.492188-2.832031 6.324219-6.324219 6.324219zm0 0" fill="#3762cc"/><path d="m323.023438 328.46875h-6.390626c-3.53125 0-6.394531-2.863281-6.394531-6.394531 0-3.527344 2.863281-6.390625 6.394531-6.390625h6.390626zm0 0" fill="#f9cfcf"/><path d="m360.273438 356.824219c-1.074219 0-1.964844-.859375-1.996094-1.941407-.277344-9.539062-7.15625-13.140624-7.449219-13.289062-.980469-.496094-1.378906-1.699219-.886719-2.683594.496094-.980468 1.683594-1.382812 2.671875-.898437.375.1875 9.316407 4.742187 9.664063 16.753906.03125 1.101563-.839844 2.023437-1.941406 2.054687-.023438.003907-.042969.003907-.0625.003907zm0 0" fill="#f9a7a7"/><path d="m486.359375 487.402344h-172.25c-2.207031 0-4-1.789063-4-4v-29.667969c0-28.71875 23.367187-52.085937 52.085937-52.085937h76.082032c28.714844 0 52.082031 23.367187 52.082031 52.085937v29.667969c0 2.210937-1.792969 4-4 4zm-168.25-8h164.25v-25.667969c0-24.308594-19.773437-44.085937-44.082031-44.085937h-76.082032c-24.308593 0-44.085937 19.777343-44.085937 44.085937zm0 0" fill="#3762cc"/><path d="m370.726562 483.402344h-67.449218v-37.601563c0-17.171875 13.917968-31.089843 31.089844-31.089843h5.269531c17.171875 0 31.089843 13.917968 31.089843 31.089843zm0 0" fill="#e0ebfc"/><path d="m370.726562 487.402344h-67.449218c-2.210938 0-4-1.789063-4-4v-37.601563c0-19.347656 15.742187-35.089843 35.089844-35.089843h5.265624c19.351563 0 35.09375 15.742187 35.09375 35.089843v37.601563c0 2.210937-1.792968 4-4 4zm-63.449218-8h59.449218v-33.601563c0-14.9375-12.15625-27.089843-27.09375-27.089843h-5.265624c-14.9375 0-27.089844 12.152343-27.089844 27.089843zm0 0" fill="#3762cc"/><path d="m362.195312 405.648438h76.082032c1.476562 0 2.933594.078124 4.371094.207031v-.566407c0-5.742187-4.65625-10.398437-10.394532-10.398437h-38.949218c-1.023438 0-2.042969.109375-3.042969.324219l-26.476563 5.664062c-2.664062.570313-4.75 2.488282-5.609375 4.949219 1.324219-.109375 2.664063-.179687 4.019531-.179687zm0 0" fill="#4671c6"/><path d="m442.648438 409.855469c-.121094 0-.238282-.003907-.359376-.015625-1.425781-.128906-2.738281-.191406-4.015624-.191406h-76.082032c-1.132812 0-2.335937.054687-3.6875.167968-1.371094.113282-2.667968-.464844-3.496094-1.539062-.828124-1.074219-1.058593-2.492188-.613281-3.769532 1.335938-3.808593 4.613281-6.699218 8.546875-7.542968l26.480469-5.664063c1.277344-.273437 2.582031-.410156 3.878906-.410156h38.945313c7.941406 0 14.398437 6.457031 14.398437 14.398437v.566407c0 1.121093-.472656 2.191406-1.300781 2.949219-.734375.679687-1.699219 1.050781-2.695312 1.050781zm-63.34375-8.207031h58.207031c-1.15625-1.664063-3.082031-2.753907-5.257813-2.753907h-38.949218c-.738282 0-1.480469.078125-2.207032.234375zm0 0" fill="#3762cc"/><path d="m331.992188 359.277344c-3.128907 0-5.402344-.5-5.640626-.550782-2.152343-.492187-3.5-2.632812-3.011718-4.789062.488281-2.148438 2.636718-3.488281 4.777344-3.015625.1875.042969 10.199218 2.121094 14.410156-4.332031 1.207031-1.855469 3.6875-2.371094 5.535156-1.167969 1.851562 1.207031 2.375 3.6875 1.164062 5.535156-4.539062 6.960938-12.058593 8.320313-17.234374 8.320313zm0 0" fill="#3762cc"/><path d="m207.453125 109.703125h16.230469l16.960937 38.027344c.777344 1.738281 3.242188 1.738281 4.015625 0l16.964844-38.027344h16.226562c9.71875 0 17.601563-7.878906 17.601563-17.597656v-70.402344c0-9.71875-7.882813-17.597656-17.601563-17.597656h-70.398437c-9.722656 0-17.601563 7.878906-17.601563 17.597656v70.402344c.003907 9.71875 7.882813 17.597656 17.601563 17.597656zm0 0" fill="#e0ebfc"/><path d="m242.652344 153.039062c-2.445313 0-4.667969-1.441406-5.660156-3.675781l-15.90625-35.65625h-13.632813c-11.910156 0-21.597656-9.691406-21.597656-21.601562v-70.398438c0-11.910156 9.6875-21.601562 21.597656-21.601562h70.402344c11.910156 0 21.597656 9.691406 21.597656 21.601562v70.398438c0 11.910156-9.6875 21.601562-21.597656 21.601562h-13.632813l-15.90625 35.65625c-.996094 2.230469-3.21875 3.675781-5.664062 3.675781zm1.644531-6.933593h.023437zm-36.84375-138c-7.496094 0-13.597656 6.101562-13.597656 13.597656v70.402344c0 7.5 6.101562 13.597656 13.597656 13.597656h16.230469c1.578125 0 3.007812.929687 3.652344 2.371094l15.316406 34.339843 15.320312-34.339843c.640625-1.441407 2.074219-2.371094 3.652344-2.371094h16.226562c7.5 0 13.601563-6.101563 13.601563-13.597656v-70.402344c0-7.5-6.101563-13.597656-13.601563-13.597656zm0 0" fill="#3762cc"/><path d="m51.058594 109.703125h16.226562l16.960938 38.027344c.777344 1.738281 3.242187 1.738281 4.019531 0l16.960937-38.027344h16.230469c9.71875 0 17.597657-7.878906 17.597657-17.597656v-70.402344c0-9.71875-7.878907-17.597656-17.597657-17.597656h-70.402343c-9.71875 0-17.597657 7.878906-17.597657 17.597656v70.402344c0 9.71875 7.882813 17.597656 17.601563 17.597656zm0 0" fill="#e0ebfc"/><path d="m86.257812 153.039062c-2.445312 0-4.664062-1.441406-5.660156-3.675781l-15.90625-35.65625h-13.632812c-11.910156 0-21.597656-9.691406-21.597656-21.601562v-70.398438c0-11.910156 9.6875-21.601562 21.597656-21.601562h70.402344c11.910156 0 21.597656 9.691406 21.597656 21.601562v70.398438c0 11.910156-9.6875 21.601562-21.597656 21.601562h-13.636719l-15.902344 35.65625c-.996094 2.230469-3.21875 3.675781-5.664063 3.675781zm1.644532-6.933593h.023437zm-36.84375-138c-7.496094 0-13.597656 6.101562-13.597656 13.597656v70.402344c0 7.5 6.101562 13.597656 13.597656 13.597656h16.230468c1.578126 0 3.007813.929687 3.652344 2.371094l15.316406 34.339843 15.320313-34.339843c.640625-1.441407 2.074219-2.371094 3.652344-2.371094h16.226562c7.5 0 13.601563-6.101563 13.601563-13.597656v-70.402344c0-7.5-6.101563-13.597656-13.601563-13.597656zm0 0" fill="#3762cc"/><path d="m267.65625 48.421875h-52c-4.417969 0-8-3.582031-8-8s3.582031-8 8-8h52c4.417969 0 8 3.582031 8 8s-3.582031 8-8 8zm0 0" fill="#f9a7a7"/><path d="m267.65625 80.421875h-52c-4.417969 0-8-3.582031-8-8s3.582031-8 8-8h52c4.417969 0 8 3.582031 8 8s-3.582031 8-8 8zm0 0" fill="#f9a7a7"/><path d="m112.257812 48.421875h-52c-4.417968 0-8-3.582031-8-8s3.582032-8 8-8h52c4.417969 0 8 3.582031 8 8s-3.578124 8-8 8zm0 0" fill="#f9a7a7"/><path d="m112.257812 80.421875h-52c-4.417968 0-8-3.582031-8-8s3.582032-8 8-8h52c4.417969 0 8 3.582031 8 8s-3.578124 8-8 8zm0 0" fill="#f9a7a7"/><path d="m157.449219 208.730469h-12.617188c.46875 2.992187.742188 6.050781.742188 9.171875v5.566406c.128906 0 .246093-.015625.375-.015625 4.496093 0 8.597656 1.660156 11.746093 4.390625v-19.136719c-.082031.003907-.160156.023438-.246093.023438zm0 0" fill="#4671c6"/><path d="m157.695312 231.84375c-.941406 0-1.875-.332031-2.621093-.976562-2.539063-2.203126-5.785157-3.414063-9.125-3.414063-.054688.007813-.222657.015625-.375.015625-1.046875 0-2.054688-.410156-2.804688-1.148438-.765625-.753906-1.195312-1.78125-1.195312-2.851562v-5.566406c0-2.773438-.226563-5.574219-.695313-8.550782-.179687-1.15625.152344-2.332031.914063-3.21875.757812-.890624 1.867187-1.402343 3.039062-1.402343h12.421875c.074219-.007813.152344-.015625.203125-.015625 1.113281-.078125 2.179688.324218 2.980469 1.082031.800781.753906 1.257812 1.808594 1.257812 2.910156v19.136719c0 1.566406-.914062 2.988281-2.335937 3.636719-.535156.242187-1.097656.363281-1.664063.363281zm-8.121093-12.089844c1.40625.238282 2.789062.613282 4.121093 1.117188v-8.140625h-4.34375c.148438 1.746093.222657 3.460937.222657 5.171875zm0 0" fill="#3762cc"/><path d="m15.363281 208.730469v19.375c3.1875-2.882813 7.398438-4.65625 12.035157-4.65625.128906 0 .25.015625.375.019531v-5.566406c0-3.125.273437-6.179688.746093-9.171875zm0 0" fill="#4671c6"/><path d="m15.363281 232.105469c-.550781 0-1.101562-.113281-1.625-.34375-1.445312-.640625-2.375-2.074219-2.375-3.65625v-19.375c0-2.207031 1.789063-4 4-4h13.15625c1.171875 0 2.28125.511719 3.042969 1.402343.757812.890626 1.089844 2.066407.910156 3.222657-.46875 2.988281-.699218 5.785156-.699218 8.546875v5.566406c0 1.074219-.429688 2.097656-1.195313 2.851562-.765625.75-1.765625 1.128907-2.871094 1.148438-.074219 0-.324219-.011719-.398437-.019531-3.359375 0-6.683594 1.289062-9.265625 3.621093-.746094.683594-1.707031 1.035157-2.679688 1.035157zm4-19.375v8.25c1.417969-.558594 2.898438-.972657 4.410157-1.226563v-1.851562c0-1.707032.074218-3.421875.226562-5.171875zm0 0" fill="#3762cc"/><path d="m433.066406 409.648438h-64.175781c-2.207031 0-4-1.789063-4-4v-15.640626c-25.824219-8.878906-45.308594-31.105468-50.707031-57.832031-4.550782-1.105469-7.945313-5.214843-7.945313-10.101562 0-4.316407 2.648438-8.03125 6.410157-9.597657v-34.335937c0-42.65625 34.707031-77.359375 77.363281-77.359375 42.660156 0 77.363281 34.703125 77.363281 77.359375v38.695313c0 23.992187-11.289062 46.785156-30.308594 61.386718v27.425782c0 2.210937-1.789062 4-4 4zm-60.175781-8h56.175781v-25.425782c0-1.28125.617188-2.484375 1.652344-3.238281 17.945312-13.03125 28.660156-34.023437 28.660156-56.148437v-38.691407c0-38.246093-31.117187-69.363281-69.363281-69.363281s-69.367187 31.117188-69.367187 69.363281v37.542969c0 2.207031-1.789063 4-4 4-1.335938 0-2.40625 1.070312-2.40625 2.386719 0 1.320312 1.070312 2.394531 2.390624 2.394531h.945313c1.964844 0 3.640625 1.425781 3.949219 3.371094 4.15625 26.0625 23.199218 47.816406 48.515625 55.421875 1.691406.507812 2.847656 2.0625 2.847656 3.832031zm-56.242187-85.960938h.023437zm0 0" fill="#3762cc"/><path d="m418.914062 194.292969c-2.753906-4.78125-7.90625-8.007813-13.824218-8.007813h-42.449219c-36.730469 0-66.503906 29.773438-66.503906 66.503906v23.324219c0 2.953125 2.394531 5.347657 5.347656 5.347657h71.683594c12.722656 0 24.277343-4.972657 32.851562-13.066407v86.558594c0 3.078125 2.496094 5.570313 5.570313 5.570313h31.925781c19.753906 0 35.769531-16.015626 35.769531-35.769532v-63.167968c-.003906-34.90625-26.429687-63.636719-60.371094-67.292969zm0 0" fill="#4671c6"/><path d="m443.515625 364.527344h-31.929687c-5.277344 0-9.570313-4.292969-9.570313-9.570313v-78.257812c-8.484375 5.695312-18.46875 8.761719-28.851563 8.761719h-71.683593c-5.15625 0-9.347657-4.191407-9.347657-9.347657v-23.320312c0-38.878907 31.628907-70.507813 70.503907-70.507813h42.453125c6.40625 0 12.425781 3.117188 16.15625 8.261719 35.5 4.765625 62.035156 34.976563 62.035156 71.042969v63.167968c0 21.929688-17.839844 39.769532-39.765625 39.769532zm-37.5-100.128906c.535156 0 1.074219.109374 1.585937.328124 1.464844.632813 2.414063 2.074219 2.414063 3.671876v86.558593c0 .863281.703125 1.570313 1.570313 1.570313h31.929687c17.515625 0 31.765625-14.25 31.765625-31.769532v-63.167968c0-32.613282-24.414062-59.832032-56.792969-63.320313-1.273437-.136719-2.398437-.871093-3.039062-1.980469-2.136719-3.703124-6.105469-6.003906-10.359375-6.003906h-42.453125c-34.464844 0-62.503907 28.039063-62.503907 62.507813v23.320312c0 .746094.605469 1.347657 1.347657 1.347657h71.683593c11.234376 0 21.929688-4.25 30.105469-11.972657.757813-.714843 1.746094-1.089843 2.746094-1.089843zm0 0" fill="#3762cc"/><path d="m425.652344 325.410156c0 10.84375-8.789063 19.636719-19.636719 19.636719-10.84375 0-19.636719-8.792969-19.636719-19.636719 0-10.847656 8.792969-19.636718 19.636719-19.636718 10.847656 0 19.636719 8.789062 19.636719 19.636718zm0 0" fill="#f9cfcf"/><path d="m407.480469 300.539062h-95.378907v-10.480468h-4.710937v27.515625h4.710937v-11.730469h95.378907zm0 0" fill="#a4c9ff"/></svg>