<svg height="512" viewBox="0 0 58 58" width="512" xmlns="http://www.w3.org/2000/svg"><g id="019---Therapist" fill="none"><path id="Shape" d="m16.9 36.86c2.443539 6.0673856 3.8139323 12.5133094 4.05 19.05h-12.8c-.73783764-.0930637-1.46051517-.281296-2.15-.56-4.07148333-1.5765162-6.51778634-5.7527528-5.90167116-10.0751111.61611517-4.3223584 4.13185455-7.6487569 8.48167116-8.0248889l4.52-.39z" fill="#26b99a"/><path id="Shape" d="m40 53.28v2.07c-.6894848.278704-1.4121624.4669363-2.15.56h-29.7c-.73783764-.0930637-1.46051517-.281296-2.15-.56v-2.07c.00110328-1.8110368 1.46896321-3.2788967 3.28-3.28h27.44c1.8110368.0011033 3.2788967 1.4689632 3.28 3.28z" fill="#14a085"/><path id="Shape" d="m38 49v6c0 1.6568542-1.3431458 3-3 3h-24c-1.65685425 0-3-1.3431458-3-3v-6z" fill="#26b99a"/><path id="Shape" d="m29.1 36.86c-2.2883641 6.8340894-3.6504889 13.9440442-4.05 21.14h-4.05c-.4024699-7.1998912-1.7817633-14.3116625-4.1-21.14z" fill="#ecf0f1"/><path id="Shape" d="m46 46.61c.0047352 3.8753052-2.3818673 7.3517895-6 8.74-.6894848.278704-1.4121624.4669363-2.15.56h-12.8c.2360677-6.5366906 1.606461-12.9826144 4.05-19.05h3.8l4.52.39c4.8534921.4250095 8.5778408 4.4879354 8.58 9.36z" fill="#26b99a"/><path id="Shape" d="m30.81 1.6c-2.4813993-1.01365751-5.1299012-1.55624432-7.81-1.6 0 0-8 0-11 4-2.163 2.884-1 12-1 12v3l12 1 11-2-1-13-2-3" fill="#805333"/><path id="Shape" d="m13.01 16.73c-.69-.55-3.01-2.12-3.01 2.2 0 4.11 3 4.92 4 5.07z" fill="#f9c795"/><path id="Shape" d="m17.86 31.12c-.1622435 1.9363978-.4833238 3.8561903-.96 5.74 0 0 1.1 3.14 6.1 3.14s6.11-3.14 6.11-3.14c-.4816408-1.8903928-.809379-3.8166906-.98-5.76z" fill="#f9c795"/><path id="Shape" d="m30 5.73c-.2902524-.29744212-.6282586-.54418664-1-.73-2-1-3 0-6 0s-4-1-6 0-3 4-3 6c-.122321 1.7020096-.4582926 3.3818677-1 5-.0634527 2.6646906.1950852 5.3272947.77 7.93 1.23 4.816 4.257 9.07 9.23 9.07 5.052 0 8.466-4.859 9.29-9.39z" fill="#fdd7ad"/><path id="Shape" d="m21 58s-.49-.85-1.29-2.09c-1.5-2.31-4.11-5.96-6.71-7.91 0 0 1-2 2-2-.6925613-1.8487771-2.1512229-3.3074387-4-4 0 0 1.8-4.28 5.9-5.14 2.443539 6.0673856 3.8139323 12.5133094 4.05 19.05.04.68.05 1.38.05 2.09z" fill="#81ccb8"/><path id="Shape" d="m33 48c-2.6 1.95-5.21 5.6-6.71 7.91-.8 1.24-1.29 2.09-1.29 2.09 0-.71.01-1.41.05-2.09.2360677-6.5366906 1.606461-12.9826144 4.05-19.05 4.1.86 5.9 5.14 5.9 5.14-1.8487771.6925613-3.3074387 2.1512229-4 4 1 0 2 2 2 2z" fill="#81ccb8"/><path id="Shape" d="m58 4v16c0 2.209139-1.790861 4-4 4h-11.68c-.2083125-.0000281-.4114336.0649986-.581.186l-6.739 4.814v-4c0-.5522847-.4477153-1-1-1-2.209139 0-4-1.790861-4-4v-16c0-2.209139 1.790861-4 4-4h20c2.209139 0 4 1.790861 4 4z" fill="#e64c3c"/><path id="Shape" d="m51 11v2c0 .5522847-.4477153 1-1 1h-3c-.5522847 0-1 .4477153-1 1v3c0 .5522847-.4477153 1-1 1h-2c-.5522847 0-1-.4477153-1-1v-3c0-.5522847-.4477153-1-1-1h-3c-.5522847 0-1-.4477153-1-1v-2c0-.5522847.4477153-1 1-1h3c.5522847 0 1-.44771525 1-1v-3c0-.55228475.4477153-1 1-1h2c.5522847 0 1 .44771525 1 1v3c0 .55228475.4477153 1 1 1h3c.5522847 0 1 .4477153 1 1z" fill="#fff"/></g></svg>